<?xml version="1.0" encoding="UTF-8"?>
<svg width="3843px" height="145px" viewBox="0 0 3843 145" version="1.1" xmlns="http://www.w3.org/2000/svg" xmlns:xlink="http://www.w3.org/1999/xlink">
    <title>Group 4</title>
    <g id="Page-1" stroke="none" stroke-width="1" fill="none" fill-rule="evenodd">
        <g id="Artboard" transform="translate(-9510.000000, -3206.000000)">
            <g id="Group-4" transform="translate(9510.000000, 3206.000000)">
                <g id="activecampaign-1" fill="#1D2E3B">
                    <path d="M1068.30874,1.10317558 C1073.44475,1.10317558 1074.52813,4.17694304 1074.52813,6.76139874 L1074.52813,16.2762882 L1064.71086,16.2762882 C1059.79776,16.2762882 1058.76788,13.3493142 1058.76788,10.8938589 L1058.76788,1.11207216 L1068.30874,1.11207216 L1068.30874,1.10317558 Z M1067.47503,32.2767824 C1071.5455,32.2767824 1073.69888,34.3229952 1073.69888,38.2063512 L1073.69888,118.070925 L1064.84906,118.070925 L1064.84906,117.759545 C1061.67918,117.474855 1059.59713,115.179538 1059.59713,111.865563 L1059.59713,32.2767824 L1067.47503,32.2767824 Z M599.045588,94.5483751 C602.077263,97.2929692 602.946641,98.4361794 602.977849,98.4851106 L603.330058,98.9521809 L602.928807,99.3747683 C589.277354,113.64043 575.567941,119.725689 557.083641,119.725689 C523.904634,119.725689 498.879941,94.0501668 498.879941,60.0029655 C498.879941,26.3561102 524.568927,0 557.360058,0 C579.865786,0 592.282278,8.84319783 602.349222,18.3981218 L602.83964,18.8607439 L602.384889,19.3589522 C602.362597,19.3856419 599.857007,22.161374 597.387084,24.6257259 C594.578326,27.7439763 590.761983,26.9788706 588.42581,24.9371061 C578.893867,16.9568763 568.933923,13.238107 557.083641,13.238107 C532.255115,13.238107 513.534522,33.1086124 513.534522,59.4469294 C513.534522,85.6651427 532.665283,106.20734 557.083641,106.20734 C569.388674,106.20734 578.635283,102.737675 588.992019,94.2280984 C591.542193,91.9683677 595.826663,91.3367107 599.045588,94.5483751 Z M809.234285,30.0704312 C829.105131,30.0704312 841.445831,43.335228 841.445831,64.6914618 L841.445831,117.519338 L834.116311,117.519338 C828.391796,117.519338 827.620502,113.960707 827.620502,110.482145 L827.620502,67.4494007 C827.620502,51.7558384 819.907564,42.7613987 806.470111,42.7613987 C795.114705,42.7613987 783.656757,50.6482145 783.656757,68.2767824 L783.656757,117.519338 L776.055278,117.519338 C772.042768,117.519338 769.831428,115.312987 769.831428,111.309527 L769.831428,67.1736068 C769.831428,51.8848387 761.926782,42.7613987 748.685496,42.7613987 C735.466501,42.7613987 725.8766,53.6063265 725.8766,68.5525763 L725.8766,111.309527 C725.8766,116.269369 723.696469,117.243544 719.929167,117.243544 L712.051271,117.243544 L712.051271,31.4494007 L719.65275,31.4494007 C723.781178,31.4494007 726.148559,33.8069937 726.148559,37.9305573 L726.148559,43.9935747 C731.45399,36.5649327 738.944011,29.5232917 752.831757,29.5232917 C768.970968,29.5232917 776.679447,39.1938712 780.027664,45.6839244 C787.50431,35.1859632 797.071919,30.0704312 809.229827,30.0704312 L809.234285,30.0704312 Z M909.047724,30.3462251 C928.949778,30.3462251 950.104627,45.9597183 950.104627,74.8958359 C950.104627,103.836402 928.949778,119.449895 909.043265,119.449895 C896.216605,119.449895 885.846494,114.045224 877.389013,102.937848 L877.389013,143.728654 L869.511116,143.728654 C865.618981,143.728654 863.563683,141.580131 863.563683,137.518843 L863.563683,32.0009885 L870.340368,32.0009885 C874.950298,32.0009885 877.384554,34.33634 877.384554,38.757939 L877.384554,47.6100334 C885.850952,35.9955517 896.225522,30.3462251 909.047724,30.3462251 L909.047724,30.3462251 Z M935.726463,74.8958359 C935.726463,53.7976029 921.04959,42.7613987 906.555509,42.7613987 C891.81176,42.7613987 876.55976,54.678364 876.55976,74.620042 C876.55976,94.7352033 891.807302,106.758927 906.555509,106.758927 C923.733514,106.758927 935.726463,93.6587174 935.726463,74.8958359 Z M1164.93446,38.2107995 C1164.93446,34.0294081 1168.7731,31.7251946 1171.43027,31.7251946 L1179.03175,31.7251946 L1179.03175,102.208328 C1179.03175,128.76906 1163.16004,144 1135.48709,144 C1120.98855,144 1107.93006,139.965402 1096.6549,132.011862 L1096.1734,131.669344 L1096.4409,131.139998 C1096.47211,131.073273 1097.30582,129.41851 1099.50824,125.846534 C1100.68525,123.93377 1102.19662,123.044112 1103.87742,123.066354 C1105.26397,123.10194 1106.8021,123.702459 1109.03127,125.068084 C1117.03353,129.525348 1126.04589,131.865236 1135.21067,131.865069 C1154.27456,131.865069 1165.20642,121.15359 1165.20642,102.484122 L1165.20642,94.5261337 C1156.15152,105.535648 1145.50053,110.895836 1132.72292,110.895836 C1113.08836,110.895836 1092.21885,96.7280366 1092.21885,70.4786853 C1092.21885,58.7707896 1096.67719,48.1794143 1104.77801,40.6618065 C1112.22344,33.7536142 1122.4063,29.7901891 1132.72292,29.7901891 C1148.97804,29.7901891 1159.08065,37.9661436 1164.93446,45.492648 L1164.93446,38.2107995 Z M1165.4873,71.0347214 C1165.4873,52.6677376 1149.88755,42.7569505 1135.21513,42.7569505 C1118.63009,42.7569505 1106.59255,54.5360188 1106.59255,70.7589275 C1106.59255,86.8795255 1118.89759,99.0322501 1135.21513,99.0322501 C1150.09709,99.0322501 1165.4873,88.5609786 1165.4873,71.0347214 L1165.4873,71.0347214 Z M1244.15034,30.3462251 C1264.21736,30.3462251 1277.18668,43.8245397 1277.18668,64.6870135 L1277.18668,117.790683 L1268.75149,117.790683 C1264.88611,117.790683 1263.0894,115.913505 1263.0894,111.865563 L1263.0894,67.7251946 C1263.0894,52.2629433 1254.56058,43.0371926 1240.27604,43.0371926 C1225.70617,43.0371926 1215.53222,53.6419128 1215.53222,68.8283702 L1215.8131,117.790683 L1201.7069,117.790683 L1201.7069,32.0009885 L1209.30837,32.0009885 C1212.54513,32.0009885 1215.80864,33.8336834 1215.80864,37.9305573 L1215.80864,45.2346472 C1222.55858,35.3505499 1232.0816,30.3462251 1244.15034,30.3462251 L1244.15034,30.3462251 Z M1001.94627,30.8978129 C1025.47296,30.8978129 1038.58049,43.0861238 1038.86137,65.234153 L1038.86137,117.519338 L1031.25543,117.519338 C1027.19834,117.519338 1025.308,115.722229 1025.308,111.865563 L1025.308,106.060546 C1017.73327,114.832571 1007.40328,119.449895 995.31225,119.449895 C973.181023,119.449895 963.096246,105.362165 963.096246,92.2752996 C963.096246,75.0070431 976.551532,65.1051526 1000.01135,65.1051526 L1014.24684,65.1051526 L1014.24684,69.9315458 C1014.24684,73.9216607 1012.21384,75.8611145 1008.02745,75.8611145 L1001.11702,75.8611145 C985.691141,75.8611145 977.197992,81.5949586 977.197992,91.9995057 C977.197992,103.089089 987.87573,108.137897 997.795549,108.137897 C1013.73859,108.137897 1025.30354,98.7964908 1025.30354,85.93204 L1025.30354,65.5143952 C1025.30354,51.1909057 1016.61868,43.3085382 1000.8406,43.3085382 C993.729537,43.3085382 987.322895,44.5718522 980.078084,47.4009638 C977.443201,48.2772767 974.237651,48.2016558 973.100773,45.3591993 C972.234883,43.1566877 971.402562,40.9411846 970.6041,38.7134561 L970.390099,38.1173854 L970.969684,37.8504881 C981.580546,33.0418881 991.13478,30.8978129 1001.94627,30.8978129 Z M653.847571,30.8978129 C677.369802,30.8978129 690.481796,43.0861238 690.762671,65.234153 L690.762671,117.519338 L683.156734,117.519338 C679.09964,117.519338 677.209301,115.722229 677.209301,111.865563 L677.209301,106.060546 C669.639031,114.832571 659.309044,119.449895 647.213553,119.449895 C625.082326,119.449895 615.002007,105.362165 615.002007,92.2752996 C615.002007,75.0070431 628.457293,65.1051526 651.917107,65.1051526 L666.050062,65.1051526 L666.050062,69.9315458 C666.050062,73.9216607 664.012599,75.8611145 659.830671,75.8611145 L653.018319,75.8611145 C637.592443,75.8611145 629.103754,81.5949586 629.103754,91.9995057 C629.103754,103.089089 639.781491,108.137897 649.70131,108.137897 C665.644353,108.137897 677.209301,98.7964908 677.209301,85.93204 L677.209301,65.5143952 C677.209301,51.1909057 668.519986,43.3085382 652.741901,43.3085382 C645.63084,43.3085382 639.228656,44.5718522 631.979386,47.4009638 C629.331129,48.2861732 626.138954,48.2016558 625.006534,45.3591993 C624.138694,43.1574343 623.306362,40.9419007 622.509861,38.7134561 L622.286943,38.1084888 L622.879903,37.8504881 C631.087717,34.2384777 640.517118,30.8978129 653.847571,30.8978129 L653.847571,30.8978129 Z M1419.3009,62.7564562 C1422.41283,64.9361176 1424,67.6317806 1424,70.7589275 L1424,72.3113802 C1423.96433,74.7268009 1423.09496,78.1252935 1419.3009,80.9677499 L1419.28753,80.9766465 C1417.45961,82.2799951 1398.85493,95.1399975 1379.15796,108.760657 C1359.88899,122.083282 1338.17685,137.096256 1335.52413,138.968986 L1335.52413,141.135302 L1334.23567,138.973434 C1334.17326,138.862227 1334.1153,138.768813 1334.18217,138.617571 L1334.14205,138.617571 L1334.14205,127.310021 C1334.14205,123.453355 1334.57005,121.598418 1338.87235,118.738169 C1342.46578,116.433955 1399.34535,77.0799456 1406.89333,71.8665513 C1399.40331,66.6753985 1343.25491,27.7840109 1339.40735,24.9726925 L1338.9526,24.6435191 C1336.10818,22.5884097 1333.87009,20.9692327 1333.87009,16.689979 L1333.87009,3.22945756 L1334.94901,3.98566663 C1338.30614,6.31656988 1417.10294,61.1150377 1419.3009,62.7564562 L1419.3009,62.7564562 Z M1370.04956,77.9784999 C1368.10126,77.9784999 1366.1708,77.3023601 1364.1378,75.9545286 C1359.21578,72.6761399 1333.96817,55.1587792 1333.71405,54.9808476 L1333.4198,54.7762264 L1333.4198,46.1376498 C1333.4198,44.1537131 1334.2758,42.5834672 1335.77826,41.8228098 C1337.38772,41.0043247 1339.39844,41.271222 1341.15502,42.5434326 C1344.95353,44.9810948 1381.6903,70.4164092 1382.06034,70.6788583 L1382.89405,71.2526875 L1382.04697,71.8176202 C1382.04697,71.8176202 1379.56367,73.4679353 1376.80841,75.3895959 C1374.44995,77.1155319 1372.24307,77.9784999 1370.04956,77.9784999 L1370.04956,77.9784999 Z M197.308537,98.1292475 C200.005836,100.820462 201.387923,101.932534 201.401298,101.945879 L201.958591,102.390708 L201.494923,102.933399 C194.776197,110.749042 184.753836,119.725689 166.684162,119.725689 C142.368346,119.725689 122.582209,99.739528 122.582209,75.1716298 C122.582209,50.0343507 141.95372,30.3462251 166.684162,30.3462251 C180.580825,30.3462251 191.142645,35.0080316 200.924255,45.4615099 L201.352256,45.924132 L200.928713,46.3912023 C199.390584,48.0904485 197.816788,49.7585568 196.202867,51.3866304 C193.492193,54.0822933 190.647769,53.9266032 186.974092,50.8750772 C182.016412,46.8627209 175.681103,42.7569505 166.407744,42.7569505 C149.898491,42.7569505 136.960373,56.8758186 136.960373,74.8958359 C136.960373,92.9203015 150.259617,107.03917 167.232538,107.03917 C175.065851,107.03917 182.257163,104.125541 188.614763,98.3872482 C190.48281,96.8926233 194.366029,95.193377 197.308537,98.1336958 L197.308537,98.1292475 Z M289.168287,1.10762387 C292.948964,1.10762387 295.387679,3.65204498 295.387679,7.59322872 L295.387679,16.2807364 L285.57486,16.2807364 C280.661764,16.2807364 279.627428,13.3537625 279.627428,10.8983072 L279.627428,1.11207216 L289.168287,1.11207216 L289.168287,1.10762387 Z M288.062617,32.2812307 C292.133087,32.2812307 294.282009,34.3274435 294.282009,38.2107995 L294.282009,118.075374 L285.436652,118.075374 L285.436652,117.763994 C282.26231,117.479303 280.180262,115.183986 280.180262,111.870011 L280.180262,32.2767824 L288.062617,32.2767824 L288.062617,32.2812307 Z M378.941531,36.83183 C380.301327,33.5756827 382.77125,31.9965402 386.48951,31.9965402 L396.119536,31.9965402 L395.695993,32.9618189 C395.357159,33.7358211 361.946318,110.241937 360.577606,113.244532 C359.128644,116.429507 357.03768,117.790683 353.591379,117.790683 L351.928416,117.790683 C348.370656,117.790683 346.159317,117.110095 344.656855,113.506981 C343.297059,110.517731 309.88176,33.4600272 309.547384,32.6815767 L309.1283,31.716298 L319.025826,31.716298 C322.802045,31.716298 325.436927,33.442234 326.854681,36.83183 C327.857809,39.8344248 348.807574,90.5493636 352.757668,100.117633 C356.716679,90.5538119 377.697653,39.8121834 378.941531,36.83183 L378.941531,36.83183 Z M465.567184,69.7936488 C466.369686,69.7936488 466.962646,69.580131 467.305938,69.1575436 C467.78744,68.5926109 467.903357,67.5650562 467.649231,66.1860867 C466.507894,51.9782528 456.22695,42.4767083 442.062786,42.4767083 C428.010081,42.4767083 417.038093,54.0200173 415.379589,70.5454096 C415.37513,70.5943408 415.10763,72.4982083 415.10763,75.1671815 C415.10763,77.5692574 415.37513,79.4686766 415.37513,79.4864698 C417.140635,96.3010009 428.861625,107.581861 444.550543,107.581861 C453.658943,107.581861 461.10438,104.846163 467.310397,99.2101816 C468.959984,97.5643148 472.094201,96.5456567 475.397835,99.1790436 C477.627008,101.127394 479.56193,102.782157 479.56193,102.782157 L480.105848,103.244779 L479.624347,103.769677 C469.544028,114.801433 458.643373,119.721241 444.274126,119.721241 C419.766601,119.721241 401.2823,100.446806 401.2823,74.8958359 C401.2823,49.3359694 419.053265,30.0659829 442.615621,30.0659829 C464.127138,30.0659829 479.958723,44.6118868 482.01402,66.2750525 C482.357313,70.905721 481.309601,74.6689732 478.982345,77.1689114 C476.726422,79.5932287 473.329163,80.8254047 468.884193,80.8254047 C461.322839,80.8254047 443.070372,80.8520944 427.350246,81.1011986 L426.650286,81.1100951 L426.650286,75.7187693 C426.650286,72.0088966 428.870542,69.7892005 432.593261,69.7892005 L465.567184,69.7892005 L465.567184,69.7936488 Z M68.0521852,5.36018782 C69.6928563,8.90992215 117.887571,115.740022 118.377989,116.816508 L118.814907,117.790683 L110.558051,117.790683 C108.801463,117.790683 103.460365,117.790683 101.356026,113.248981 C99.8312717,109.943902 64.5746757,30.1015693 59.402995,18.3892253 L34.2044264,74.757939 L71.5029446,74.757939 L71.5029446,80.9677499 C71.5029446,85.0112443 68.5604366,87.7247004 64.177883,87.7247004 L28.6092029,87.7247004 C27.2672409,90.678364 18.9791766,108.85852 17.4544225,112.150253 C15.3144167,116.118127 12.8177432,117.795132 9.08610806,117.795132 L0,117.795132 L0.436917856,116.816508 C0.927335857,115.731126 49.6659685,7.55319412 50.7582631,5.09773879 C52.2741006,2.36648956 54.7128156,0.827381688 57.4725314,0.827381688 L60.7895404,0.827381688 C64.5211756,0.827381688 66.3490972,1.97059187 68.0432685,5.34684295 L68.0521852,5.36463611 L68.0521852,5.36018782 Z M259.671873,105.646855 C260.452084,106.225133 261.37942,107.390584 261.37942,109.650315 C261.37942,112.688496 261.111919,115.139503 261.103002,115.246262 L261.058419,115.61547 L260.724043,115.784505 C256.337031,117.977511 249.324053,119.445447 243.26962,119.445447 C227.491536,119.445447 218.80222,110.771284 218.80222,95.0287903 L218.80222,1.37896948 L225.578906,1.37896948 C229.858917,1.37896948 232.623091,3.92339058 232.623091,7.86457432 L232.623091,32.2767824 L252.119436,32.2767824 C255.645987,32.2767824 259.444498,34.305202 259.444498,38.757939 L259.444498,44.6875077 L232.62755,44.6875077 L232.903967,93.1026813 C232.903967,101.981465 237.415813,106.483134 246.310212,106.483134 C249.230428,106.483134 251.325851,105.97158 254.424401,105.130854 C256.47524,104.51699 258.392328,104.703818 259.671873,105.651304 L259.671873,105.646855 Z" id="Shape"></path>
                </g>
                <g id="sendgrid-2" transform="translate(2267.798390, 0.614135)" fill-rule="nonzero">
                    <polygon id="Path" points="142.479975 0 47.4560169 0 47.4560169 47.3821048 0 47.3821048 0 142.258065 95.0239583 142.258065 95.0239583 94.8759598 142.479975 94.8759598"></polygon>
                    <polygon id="Path" fill="#00B2E3" opacity="0.4" points="0 47.6129032 0 94.9912231 47.3405738 94.9912231 47.3405738 142.258065 94.7927998 142.258065 94.7927998 47.6129032"></polygon>
                    <path d="M169.231317,122.652908 L189.950941,106.447 C195.774835,116.50584 205.070666,122.317613 215.710472,122.317613 C227.246262,122.317613 233.40615,114.829366 233.40615,106.67053 C233.40615,96.9469856 221.534366,93.817569 208.878596,89.9057982 C192.974886,84.9881435 175.16721,78.8410751 175.16721,56.1528045 C175.16721,37.1527749 191.742908,22.0645161 214.70249,22.0645161 C234.078138,22.0645161 245.165936,29.3292333 254.797761,39.2763076 L236.094101,53.3586825 C231.166191,46.0939653 224.222317,42.1821945 214.926486,42.1821945 C204.398678,42.1821945 198.686782,47.8822034 198.686782,55.3704503 C198.686782,64.4234056 210.110574,67.5528222 222.766344,71.7998876 C238.89405,77.052837 257.149718,84.0940244 257.149718,106.89406 C257.149718,125.782325 242.141991,143.889246 215.934468,143.889246 C194.318861,144 179.983122,134.83528 169.231317,122.652908 L169.231317,122.652908 Z M351.340005,61.0704592 L373.515602,61.0704592 L373.515602,70.1234144 C378.779506,63.4175217 386.731361,59.393986 396.027192,59.393986 C415.178844,59.393986 426.826632,71.6881228 426.826632,92.6999202 L426.826632,142.211762 L404.203043,142.211762 L404.203043,95.7175719 C404.203043,84.8763786 399.163135,78.5057804 389.195316,78.5057804 C380.683471,78.5057804 373.739598,84.3175542 373.739598,97.9528695 L373.739598,142.323527 L351.452003,142.323527 L351.452003,61.0704592 L351.340005,61.0704592 Z M431.86654,101.752875 C431.86654,73.0293013 453.034155,59.5057509 471.401821,59.5057509 C481.92963,59.5057509 490.329477,63.4175217 495.705379,69.1175305 L495.705379,23.7409893 L517.992974,23.7409893 L517.992974,142.323527 L495.705379,142.323527 L495.705379,133.270572 C490.329477,139.64117 481.705634,144 471.177825,144 C453.930139,144 431.86654,130.25292 431.86654,101.752875 Z M496.377367,101.529346 C496.377367,89.4587387 487.641526,79.7351941 475.545746,79.7351941 C463.22597,79.7351941 453.706143,89.0116791 453.706143,101.529346 C453.706143,114.047012 463.113972,123.435262 475.545746,123.435262 C487.529528,123.435262 496.377367,113.599953 496.377367,101.529346 L496.377367,101.529346 Z M523.256878,83.0881405 C523.256878,49.3351468 548.792413,22.176281 583.959774,22.176281 C601.543454,22.176281 616.327185,28.5468792 627.078989,38.6057183 C631.44691,42.7410189 635.142843,47.4351438 638.05479,52.5763283 L618.23115,64.6469353 C610.951283,51.1233849 599.639489,44.1939623 584.18377,44.1939623 C562.568163,44.1939623 545.768468,61.8528133 545.768468,83.1999054 C545.768468,104.994057 562.232169,122.205848 584.967755,122.205848 C602.215442,122.205848 614.42322,112.482304 618.679142,97.3940451 L581.383821,97.3940451 L581.383821,75.5998936 L643.094698,75.5998936 L643.094698,84.6528488 C643.094698,116.50584 620.359112,143.888567 584.967755,143.888567 C547.784432,144 523.256878,115.83525 523.256878,83.0881405 Z M648.694596,61.0704592 L670.870193,61.0704592 L670.870193,74.3704799 C674.90212,65.876349 682.293985,61.0704592 693.381783,61.0704592 L702.34162,61.0704592 L694.165769,82.7528459 L688.117879,82.7528459 C676.246095,82.7528459 670.982191,88.8999143 670.982191,103.988173 L670.982191,142.323527 L648.694596,142.323527 L648.694596,61.0704592 Z M708.053517,61.0704592 L730.341111,61.0704592 L730.341111,142.323527 L708.053517,142.323527 L708.053517,82.7528459 L699.989663,82.7528459 L708.053517,61.0704592 Z M719.253313,48.7763224 C726.645178,48.7763224 732.58107,42.8527838 732.58107,35.4763017 C732.58107,28.0998196 726.645178,22.176281 719.253313,22.176281 C711.861447,22.176281 705.925555,28.0998196 705.925555,35.4763017 C705.925555,42.7410189 711.861447,48.7763224 719.253313,48.7763224 Z M735.605015,101.752875 C735.605015,73.0293013 756.77263,59.5057509 775.140296,59.5057509 C785.668105,59.5057509 794.067952,63.4175217 799.443854,69.1175305 L799.443854,23.7409893 L821.731449,23.7409893 L821.731449,142.323527 L799.443854,142.323527 L799.443854,133.270572 C794.067952,139.64117 785.444109,144 774.9163,144 C757.556616,144 735.605015,130.25292 735.605015,101.752875 Z M800.115842,101.529346 C800.115842,89.4587387 791.380001,79.7351941 779.284221,79.7351941 C766.964445,79.7351941 757.444618,89.0116791 757.444618,101.529346 C757.444618,114.047012 766.852447,123.435262 779.284221,123.435262 C791.268003,123.435262 800.115842,113.599953 800.115842,101.529346 L800.115842,101.529346 Z M346.076101,101.529346 C346.076101,78.1704858 328.940412,59.5057509 304.076865,59.5057509 C280.66929,59.5057509 261.741635,78.3940156 261.741635,101.752875 C261.741635,125.111735 279.325315,144 304.748852,144 C322.332533,144 334.988302,135.505869 342.044174,123.435262 L324.348496,112.929363 C320.652563,120.082316 313.372696,124.552911 304.86085,124.552911 C293.101064,124.552911 285.821197,118.741137 283.245244,109.799947 L346.076101,109.799947 L346.076101,101.529346 Z M284.253225,91.8058011 C287.725162,84.2057893 294.781034,78.95284 304.300861,78.95284 C313.70869,78.95284 320.764561,83.3116703 323.676508,91.8058011 L284.253225,91.8058011 Z" id="Shape" fill="#1D2E3B"></path>
                    <polygon id="Path" fill="#1A82E2" points="0 94.6451613 47.6871754 94.6451613 47.6871754 142.258065 0 142.258065"></polygon>
                    <polygon id="Path" fill="#00B2E3" points="95.1394014 47.557506 95.1394014 0.580645161 47.6871754 0.580645161 47.6871754 94.6451613 142.479975 94.6451613 142.479975 47.557506"></polygon>
                    <polygon id="Path" fill="#1A82E2" points="95.3743507 0.580645161 143.061526 0.580645161 143.061526 48.1935484 95.3743507 48.1935484"></polygon>
                </g>
                <g id="mailchimp-(1)" transform="translate(1552.000000, 0.364578)" fill="#1D2E3B" fill-rule="nonzero">
                    <path d="M559.981447,105.72624 L560.181532,105.72912 C572.075821,105.72912 580.446302,97.48512 580.537852,85.6872 C580.581612,79.84512 578.89456,74.49696 575.786758,70.63344 C572.500463,66.54384 567.899937,64.36368 562.480356,64.32048 L562.372396,64.32048 C555.058481,64.32048 548.267091,69.87168 541.609572,81.29376 L541.079849,82.20528 L540.740135,81.21168 C539.058842,76.31712 537.5618,72.23904 536.666453,69.79824 C536.038847,68.09616 535.76247,67.33152 535.696255,67.08384 C535.376694,65.84832 534.321567,65.0808 532.936803,65.0808 C532.08608,65.0808 531.182096,65.37024 530.327055,65.91456 C529.479211,66.45456 529.005627,67.11408 528.835771,67.99536 L528.792587,68.12784 C522.129309,88.91712 516.636316,99.01008 511.98109,99.01008 C511.304542,99.00432 510.77482,98.784 510.380406,98.34336 C509.161181,96.99552 509.460589,93.79008 509.875155,89.352 C510.178882,86.09184 510.525792,82.40112 510.381846,78.48432 C510.108348,70.95456 505.988603,66.43296 499.368509,66.384 C490.953404,66.38112 485.500716,75.34656 482.988852,80.6904 L482.238891,82.28304 L482.073353,80.52624 C481.445747,73.91376 479.227533,66.01536 472.223103,65.96352 C464.052707,65.96352 457.828466,75.55392 454.03116,83.60352 L453.01346,85.76064 L453.114222,83.37888 C453.564774,72.64368 453.934716,66.3048 454.215412,64.54656 C454.491789,62.78256 454.346403,61.59888 453.769178,60.92064 C453.222182,60.2856 452.191526,60.05088 450.680089,60.14592 C448.064583,60.31152 446.727322,61.90416 444.713512,67.24224 C441.405624,76.00896 432.991959,96.40512 426.273982,96.40512 C424.941038,96.39504 423.885912,95.94144 423.11292,95.05296 C420.295889,91.82304 421.422989,83.088 422.981928,71.00208 L423.099964,70.08768 C423.838409,64.36512 422.580318,63.144 419.472516,62.57232 C419.161102,62.5136876 418.845097,62.4828464 418.528228,62.48016 C416.046592,62.48016 414.886384,64.8576 412.568848,71.46432 C408.444784,83.22048 403.140361,95.58432 396.939151,95.58432 C396.711716,95.58432 396.488599,95.56704 396.259724,95.53104 C392.973429,94.97088 393.045402,90.09504 393.136088,83.916 C393.182151,80.5752 393.23829,76.78656 392.724401,73.36656 C391.797387,67.22928 388.184333,63.39744 383.288717,63.35856 C373.523395,63.35856 366.937849,75.86928 363.87467,83.32848 L363.180848,85.01616 L362.949095,83.20464 C362.347479,78.4166772 361.95222,73.6050212 361.764416,68.78304 L361.755779,68.60304 L361.866618,68.46192 C380.143489,45.4464 388.345553,28.83744 388.454952,14.60736 C388.525486,5.51664 384.332328,0.05616 377.24009,-1.42108547e-14 C372.053703,-1.42108547e-14 359.723256,4.32144 355.437973,44.34768 C354.637233,51.8618388 354.204875,59.4107229 354.142456,66.9672 L354.139577,67.11696 L354.054648,67.23792 C345.692804,79.34544 327.846333,100.17216 310.374122,100.17216 C294.587524,100.17216 281.992216,87.39504 281.992216,64.84176 C281.992216,34.60752 303.384087,16.04448 319.483049,16.04448 L319.616919,16.04448 C323.114816,16.0704 326.114658,17.04816 328.291127,18.8712 C330.551085,20.76336 331.735764,23.41584 331.711293,26.54064 C331.679625,30.7152 330.319331,32.8608 329.005101,34.93296 C328.669706,35.4672 328.331432,35.99712 328.023387,36.55872 C327.712463,37.12608 327.428888,37.94832 327.842014,38.65248 C328.265217,39.37392 329.346254,39.82752 330.663363,39.8376 C334.495216,39.8376 340.290496,34.28784 340.353833,25.9272 C340.420048,17.17632 333.051433,8.15904 319.904811,8.15904 C300.009984,8.15904 273.214367,30.024 273.214367,65.45952 C273.214367,90.5256 288.924674,107.85024 310.205705,107.85024 C325.307119,107.85024 340.245873,97.03296 353.475984,78.96528 L354.286402,77.87088 L354.343981,79.23024 C354.624676,85.84416 355.104017,91.05408 355.453807,94.86 C355.679803,97.30656 355.843902,99.07344 355.838144,100.04832 C355.82087,102.18384 356.167781,103.66992 356.906226,104.58 C357.641792,105.49152 358.810636,105.92208 360.584056,105.9336 C363.555109,105.9336 364.151047,103.90752 365.327089,98.90784 L365.665363,97.4808 C367.127858,91.42272 372.528726,71.64864 380.651619,71.64864 C381.978805,71.6616 383.002263,72.05328 383.729193,72.82368 C385.522764,74.72736 385.326997,78.63408 385.099562,83.16 C384.955616,85.98384 384.811669,88.89984 385.093804,91.74096 C385.858159,99.4104 389.168926,103.1616 395.213234,103.2048 C401.420202,103.20768 407.897788,96.51888 411.316514,90.30384 L411.961394,89.13312 L412.2133,90.44928 C412.843785,93.77568 415.665134,104.69376 424.499123,104.69376 C432.50542,104.69376 439.374541,96.25968 446.902936,78.90048 L447.888969,76.63392 L447.828511,79.1064 C447.668731,85.68432 447.313183,93.71664 447.310304,99.92736 C447.307425,104.7312 447.792525,106.56432 450.012178,106.56432 L450.51599,106.58736 C452.644957,106.58736 454.090178,105.31584 454.81135,102.8016 C460.477079,83.04912 465.372695,73.8504 470.223688,73.8504 C474.973918,73.8864 475.418712,82.57536 475.80017,97.92864 L475.82608,99.00576 C475.941237,104.37552 476.135565,106.75152 479.469363,106.776 C481.99994,106.776 482.628986,104.78736 483.937458,99.89136 C484.187925,98.95824 484.458544,97.9344 484.779545,96.82848 C489.35416,80.95248 493.145708,74.47536 497.867149,74.47536 C501.909163,74.5056 502.133719,78.6744 502.208571,80.04384 C502.364033,82.97712 502.061746,86.04864 501.770974,89.0136 C501.498915,91.76976 501.219659,94.62096 501.32474,97.26912 C501.572328,103.4784 504.969462,106.92432 510.894295,106.96896 C518.58391,106.96896 525.525004,97.97184 531.603859,80.23392 L532.025622,78.9984 L532.507843,80.2152 C533.611911,83.00304 535.048496,86.77728 536.377121,91.28016 L536.427502,91.45152 L536.35409,91.61424 C530.466683,104.68944 526.31383,119.2536 526.254812,127.03536 C526.175642,137.28384 530.810715,143.94384 538.064172,144 L538.189406,144 C542.134976,144 551.331709,142.41456 551.510203,127.7496 C551.583616,121.73904 550.162865,113.24016 547.294014,102.4848 L546.964376,101.2536 L548.022382,101.9592 C551.697333,104.39136 555.827155,105.69168 559.981447,105.72624 L559.981447,105.72624 Z M361.786008,55.99008 C361.950107,52.3152 362.259591,48.7368 362.698628,45.3528 C365.545887,23.54832 371.485114,8.32176 377.149404,8.32176 L377.175314,8.32176 C379.875748,8.34192 381.225965,10.38528 381.198615,14.39136 C381.120884,24.23664 374.885128,38.33136 362.66696,56.28384 L361.711156,57.68928 L361.786008,55.99008 L361.786008,55.99008 Z M542.399837,134.37936 C541.498733,135.58032 540.24352,136.18944 538.671626,136.18944 C536.866539,136.1736 535.510564,135.54576 534.587868,134.31168 C532.002591,130.85712 532.730959,122.73552 536.948588,107.99424 C537.45384,106.23168 537.999397,104.46192 538.578061,102.7296 L539.067479,101.25936 L539.497878,102.74688 C544.410768,119.76336 545.386724,130.40496 542.399837,134.37936 Z M543.928548,90.78336 L543.839301,90.62064 L543.660807,90.05472 L543.744296,89.88624 C549.346689,78.33744 555.766697,71.71776 561.351816,71.71776 L561.409395,71.71776 C567.717125,71.76528 572.0787,77.44464 572.018242,85.5216 C571.976498,90.91296 569.599943,94.0176 567.616362,95.67216 C565.352086,97.56144 562.336409,98.64144 559.342325,98.64144 C551.960755,98.58528 546.893843,94.33584 543.928548,90.78336 Z M186.603275,103.8168 C195.251573,103.1256 202.112057,91.35936 204.659908,86.33088 L205.316303,85.03488 L205.565331,86.46624 C206.788875,93.53664 210.633682,105.41664 222.660402,105.51168 L222.761164,105.51168 C227.963386,105.51168 233.865187,102.32784 239.830325,96.3072 L240.267922,95.86512 L240.586043,96.39648 C244.602147,103.11552 249.98862,106.68528 255.723443,106.39152 C264.165898,105.95232 269.290389,99.96768 269.740941,95.8104 C269.856098,94.75056 269.576842,93.75264 268.970828,93.08016 C268.21223,92.23344 267.109601,92.13552 266.300623,92.91168 L265.913407,93.27744 C263.948539,95.16528 260.286543,98.6832 256.29635,98.89056 C251.41081,99.1296 247.797756,96.20784 245.462946,90.17712 L245.366502,89.92368 L245.530601,89.71056 C258.965116,72.13248 268.392163,45.31104 267.46083,27.32112 C267.03187,18.99504 264.612132,9.06912 255.521918,9.06912 L254.843931,9.0864 C251.361868,9.2664 248.195048,10.92672 245.432717,14.0184 C236.9989,23.4576 232.585504,46.69056 234.187627,73.20816 C234.518704,78.7176 235.475947,83.86704 237.029128,88.50816 L237.116936,88.7688 L236.939882,88.97904 C231.955019,94.80672 227.036371,98.01648 223.089362,98.01648 C213.59322,98.01648 213.912781,82.0872 214.662741,68.87952 C214.825401,66.0312 215.065791,64.2168 214.223705,63.18576 C213.622009,62.44704 212.614384,62.08272 211.146131,62.0712 L210.974835,62.06976 C207.594974,62.06976 206.888198,62.76528 205.159402,67.78224 C201.562182,78.20496 194.461308,95.69664 187.318689,95.69664 C185.339426,95.67792 183.827989,95.00256 182.793015,93.68352 C179.328226,89.25984 181.959565,78.22656 184.072698,69.3576 C184.452717,67.76352 184.816901,66.2328 185.129264,64.81584 C185.591332,62.71344 185.450265,61.17984 184.707502,60.25104 C183.961859,59.32512 182.474893,58.95072 180.512904,59.10624 C177.454044,59.35104 175.497813,60.63264 174.552085,66.45168 L174.362076,67.66128 L173.650981,66.80016 C172.315159,64.82736 169.711169,62.47728 164.87601,62.47728 C164.452808,62.47728 164.013771,62.49456 163.56034,62.53056 C158.401302,62.95392 152.526851,66.5496 148.227173,71.91648 C143.207763,78.18192 140.809617,86.112 141.477528,94.24944 C141.512075,94.68 141.573972,95.09328 141.635869,95.50368 L141.670416,95.72976 L141.514954,95.90112 C138.512232,99.1728 135.451933,100.83456 132.420422,100.83456 C127.740726,100.8 125.056126,97.32096 125.056126,91.52496 C125.056126,81.7704 131.664704,52.36128 131.664704,41.71536 C131.664704,30.38544 126.617944,24.21792 117.854489,24.15024 L117.722058,24.15024 C104.925226,24.15024 94.9526213,38.67552 85.408977,68.56128 C84.5024234,71.4302027 83.6223937,74.3074456 82.7690006,77.19264 L81.4288599,81.68688 L81.8247124,77.01552 C82.6879821,66.9975005 83.2913204,56.9587637 83.6341183,46.90944 C84.1091413,32.46624 82.158668,23.17104 77.6661017,18.49392 C75.2434843,15.97104 72.0392381,14.72832 67.8647934,14.69664 L67.7582731,14.69664 C52.0997869,14.69664 44.5987416,41.11488 39.1359768,59.75568 C37.4877909,65.3832 34.2389213,78.0768 32.0696495,86.75424 L33.3550906,84.6648 C34.3180918,73.73808 37.1092119,46.368 36.9264,31.51872 C36.727754,15.58944 31.4276487,8.44848 19.7320061,8.3592 L19.5880597,8.3592 C13.3407873,8.3592 9.00656205,11.46528 6.47166647,14.07024 C2.40086312,18.252 -0.135471929,24.36336 0.00559551389,29.64096 C0.0919633361,32.84928 2.05971022,35.7048 3.55099461,35.7048 C4.52263261,35.7048 5.06099204,34.40736 5.29418516,33.63408 C8.91299691,21.66912 13.5955723,15.85152 19.6038938,15.85152 C22.0956055,15.87024 23.9510742,16.60464 25.3387172,18.09792 C30.0342478,23.13648 29.1792064,36.7416 27.6317829,61.44192 C27.1308495,69.40224 26.5665798,78.42096 26.0901173,88.68096 C26.0069935,90.3738423 25.9081461,92.0659154 25.7935877,93.75696 C25.3372778,100.88064 24.9745329,106.51104 27.6764063,106.93008 C31.1915766,107.47872 33.4788845,106.05024 34.6506079,102.5712 C36.3866011,97.40736 40.2803505,83.29392 47.8145035,57.50496 C55.0434902,32.75712 60.5048155,23.7528 67.4919723,23.7528 C75.5644847,23.7528 76.1661806,37.61856 74.6864119,66.87936 C74.3711693,73.08288 73.9494065,80.10864 73.6255271,87.7536 C73.5809038,88.82784 73.5305225,89.8704 73.4787018,90.87264 C73.1677777,97.20432 72.9230688,102.1968 74.7310353,104.112 C75.295305,104.70816 76.0610997,105.00336 77.0759216,105.00912 C80.5752579,105.00912 81.6275059,101.94048 83.3706964,96.85296 C83.6787416,95.95584 84.0054999,94.9968 84.3696842,93.99456 C96.3604168,60.9048 105.226074,32.19552 117.12612,32.19552 C120.694551,32.19552 123.472716,35.09568 123.472716,40.752 C123.472716,53.80848 117.090134,79.03584 117.090134,91.8288 C117.090134,96.41232 118.408682,100.52496 120.898955,103.41648 C123.455442,106.38576 127.032509,107.96688 131.242941,108.00288 L131.335066,108.00288 C135.316623,108.00288 139.463718,106.06752 143.666952,102.25152 L144.061365,101.8944 L144.378047,102.32208 C147.146136,106.04304 151.611352,108.0432 156.433556,107.67168 C163.82952,107.09568 170.035048,100.50768 172.343948,94.29552 L172.795939,93.08016 L173.246492,94.29552 C174.962332,98.90496 178.67327,104.46048 186.603275,103.8168 L186.603275,103.8168 Z M254.753245,17.35632 L254.879918,17.35344 C255.724883,17.35344 256.467646,17.7768 257.083737,18.61488 C260.020243,22.5864 260.064866,37.08288 255.013788,53.57664 C252.127663,63.00288 248.245429,71.90784 243.791729,79.32528 L243.080634,80.50608 L242.899261,79.13952 C242.375296,75.15072 242.116193,70.99776 241.934821,67.464 C240.646501,42.53328 248.184972,17.6976 254.753245,17.35632 L254.753245,17.35632 Z M172.692298,75.62304 C170.104142,86.04144 165.140871,98.6184 156.191726,99.3384 L155.463357,99.36864 C151.75098,99.36864 149.669516,96.93792 149.276542,92.13984 C148.784245,86.13792 151.370962,79.10928 155.864967,74.22912 C158.725182,71.1216 161.952459,69.41088 164.950862,69.41088 L165.01132,69.41088 C168.79567,69.43968 171.448601,72.47952 172.667827,75.31488 L172.732603,75.46176 L172.692298,75.62304 L172.692298,75.62304 Z M214.199234,37.42704 C210.895665,37.42704 208.228339,40.03056 208.202428,43.23168 C208.176518,46.45584 210.82801,49.09968 214.109987,49.12416 L214.157489,49.60368 L214.157489,49.12416 C217.413556,49.12416 220.079443,46.52208 220.105354,43.3224 C220.131264,40.0968 217.481211,37.45296 214.199234,37.42704 Z M421.90377,37.42704 C418.600201,37.42704 415.934314,40.03056 415.906964,43.23168 C415.881054,46.45584 418.531107,49.09968 421.814523,49.12416 L421.860586,49.60368 L421.860586,49.12416 C425.119532,49.12416 427.785419,46.52208 427.811329,43.3224 C427.83436,40.0968 425.185747,37.45296 421.90377,37.42704 Z" id="Shape"></path>
                    <path d="M583.426202,99.025788 C581.148368,99.0298225 579.303277,100.876879 579.30086,103.155524 C579.305698,105.431976 581.150553,107.275521 583.426202,107.277937 C585.70209,107.275524 587.547365,105.432213 587.553009,103.155524 C587.551395,100.875974 585.704942,99.0282107 583.426202,99.025788 L583.426202,99.025788 Z M583.426202,106.681908 C581.473325,106.681908 579.899605,105.110558 579.899605,103.156988 C579.899605,101.203418 581.473325,99.627675 583.426202,99.627675 C585.377615,99.627675 586.954263,101.203418 586.954263,103.156988 C586.954263,105.110558 585.377615,106.681908 583.426202,106.681908 Z M585.254645,102.077692 C585.254645,101.225385 584.835963,100.759691 583.758513,100.759691 L581.928606,100.759691 L581.928606,105.516209 L582.527352,105.516209 L582.527352,103.433768 L583.382284,103.433768 L584.802292,105.516209 L585.478626,105.516209 L584.058618,103.433768 C584.702745,103.321006 585.254645,102.954895 585.254645,102.077692 Z M583.294449,102.897781 L582.53028,102.897781 L582.53028,101.288356 L583.594554,101.288356 C584.105464,101.288356 584.661755,101.465554 584.661755,102.074763 C584.657364,102.867028 583.948824,102.897781 583.294449,102.897781 L583.294449,102.897781 Z" id="Shape"></path>
                </g>
                <g id="klaviyo-seeklogo.com" transform="translate(3218.000000, 0.364578)" fill="#1D2E3B" fill-rule="nonzero">
                    <path d="M4.3622386,65.1844344 L100.09048,1.79837104 C104.261646,-0.599457014 109.371323,-0.599457014 113.542488,1.79837104 L209.27073,65.1844344 C213.024779,67.0609955 214.693245,71.5438914 212.81622,75.401267 C212.086267,76.9650679 210.834917,78.2161086 209.27073,78.9458824 L196.444397,87.3904072 C165.056379,37.8700452 99.5690847,23.1703167 50.0364978,54.4463348 C36.7930482,62.8908597 25.5309021,74.0459729 17.0842925,87.3904072 L4.15368034,78.9458824 C0.399631644,76.9650679 -1.06027618,72.3779186 0.816748166,68.6247964 C1.65098121,67.1652489 2.90233078,65.9142081 4.3622386,65.1844344 Z M106.660066,64.4546606 C79.2346543,64.558914 53.6862673,78.6331222 39.0871891,101.881629 L61.0900856,116.477104 C76.2105595,91.3520362 108.849927,83.3245249 133.876919,98.441267 C141.280737,102.924163 147.433206,109.075113 151.917208,116.477104 L173.920105,101.881629 C159.529585,78.5288688 134.085477,64.3504072 106.660066,64.4546606 Z M106.660066,117.415385 C96.9621065,117.519638 88.0983804,122.732308 83.3015404,131.176833 L98.1091769,140.872398 C100.507597,142.957466 103.531692,144 106.660066,144 C109.78844,144 112.916813,142.853213 115.210954,140.872398 L130.018591,131.176833 C125.32603,122.628054 116.358025,117.415385 106.660066,117.415385 Z" id="Shape"></path>
                    <path d="M272.621603,72.5998441 L296.55929,107.124289 L279.698832,107.124289 L261.589452,80.3416892 L261.589452,107.124289 L247.851301,107.124289 L247.851301,38.7031166 L261.589452,38.7031166 L261.589452,66.0088137 L278.76214,38.7031166 L294.581829,38.7031166 L272.621603,72.5998441 Z M320.184746,38.9123557 L306.446596,38.9123557 L306.446596,107.333528 L341.520511,107.333528 L341.520511,93.5237499 L319.872516,93.5237499 L320.184746,38.9123557 L320.184746,38.9123557 Z M382.110502,36.401487 L410.731649,107.228908 L395.328268,107.228908 L392.622268,99.8009217 L370.037581,99.8009217 L367.331582,107.228908 L351.824124,107.228908 L380.445271,36.401487 L382.110502,36.401487 Z M387.626577,87.0373391 L381.48604,69.3566387 L375.137349,87.0373391 L387.626577,87.0373391 Z M429.985875,76.8892448 L415.935494,38.9123557 L400.532113,38.9123557 L429.15326,109.739777 L430.50626,109.739777 L459.127407,38.9123557 L443.619949,38.9123557 L429.985875,76.8892448 Z M469.639174,107.333528 L483.377325,107.333528 L483.377325,38.9123557 L469.639174,38.9123557 L469.639174,107.333528 Z M537.705467,38.9123557 L523.863239,62.5563693 L510.021011,38.9123557 L493.472784,38.9123557 L517.09824,76.4707667 L517.09824,107.333528 L530.628237,107.333528 L530.628237,76.4707667 L554.461847,38.9123557 L537.705467,38.9123557 Z M624.713755,71.8675074 C624.713755,91.4313593 608.894066,107.333528 589.431686,107.333528 C569.969305,107.333528 554.149617,91.4313593 554.149617,71.8675074 C554.149617,52.3036554 569.969305,36.401487 589.431686,36.401487 L589.431686,36.401487 C608.998143,36.5061065 624.713755,52.3036554 624.713755,71.8675074 Z M611.495988,71.8675074 C611.495988,59.6270225 601.608683,49.7927867 589.535763,49.7927867 C577.358765,49.7927867 567.575537,59.731642 567.575537,71.8675074 C567.575537,84.0033728 577.462842,93.942228 589.535763,93.942228 C589.535763,93.942228 589.535763,93.942228 589.535763,93.942228 C601.608683,93.942228 611.495988,84.1079923 611.495988,71.9721269 C611.495988,71.9721269 611.495988,71.9721269 611.495988,71.8675074 L611.495988,71.8675074 Z" id="Shape"></path>
                </g>
            </g>
        </g>
    </g>
</svg>