<?xml version="1.0" encoding="UTF-8"?>
<svg width="2739px" height="304px" viewBox="0 0 2739 304" version="1.1" xmlns="http://www.w3.org/2000/svg" xmlns:xlink="http://www.w3.org/1999/xlink">
    <title>Group 6</title>
    <defs>
        <polygon id="path-1" points="0 0 293 0 293 293 0 293"></polygon>
    </defs>
    <g id="Page-1" stroke="none" stroke-width="1" fill="none" fill-rule="evenodd">
        <g id="Artboard" transform="translate(-9511.000000, -946.000000)">
            <g id="Group-6" transform="translate(9511.000000, 946.000000)">
                <g id="wordpress-blue" transform="translate(532.000000, 11.000000)">
                    <mask id="mask-2" fill="white">
                        <use xlink:href="#path-1"></use>
                    </mask>
                    <g id="a"></g>
                    <g id="Group" mask="url(#mask-2)" fill="#1D2E3B" fill-rule="nonzero">
                        <g id="Shape">
                            <path d="M20.8234873,146.495217 C20.8234873,196.24285 49.7320672,239.230086 91.6517257,259.604543 L31.7039836,95.3486337 C24.5176061,111.441579 20.8099274,128.87054 20.8234873,146.495217 L20.8234873,146.495217 Z M231.335298,140.153309 C231.335298,124.621372 225.756372,113.864998 220.971361,105.492818 C214.600912,95.1405847 208.632204,86.3738288 208.632204,76.0215958 C208.632204,64.4688959 217.391571,53.714913 229.73312,53.714913 C230.290295,53.714913 230.818775,53.7842627 231.363993,53.8153505 C209.002857,33.3308903 179.214312,20.8240345 146.496413,20.8240345 C102.591967,20.8240345 63.9651424,43.3507231 41.4940054,77.4707649 C44.4424902,77.5592455 47.2235834,77.6190297 49.5814147,77.6190297 C62.726444,77.6190297 83.074098,76.0239871 83.074098,76.0239871 C89.8486783,75.6246286 90.6473757,85.5751118 83.8823606,86.3762202 C83.8823606,86.3762202 77.0719107,87.1773285 69.4962416,87.5742956 L115.261126,223.702932 L142.76597,141.217468 L123.183535,87.5719043 C116.416129,87.1749372 110.005027,86.3738288 110.005027,86.3738288 C103.232838,85.9768617 104.026753,75.6222373 110.798942,76.0215958 C110.798942,76.0215958 131.553119,77.6166384 143.901842,77.6166384 C157.04448,77.6166384 177.394525,76.0215958 177.394525,76.0215958 C184.173888,75.6222373 184.970194,85.5727204 178.200397,86.3738288 C178.200397,86.3738288 171.37799,87.1749372 163.816669,87.5719043 L209.232422,222.669861 L221.765276,180.780263 C227.200723,163.397408 231.335298,150.912074 231.335298,140.153309 L231.335298,140.153309 Z"></path>
                            <path d="M148.701201,157.488337 L110.99503,267.056046 C122.522772,270.453431 134.478488,272.178357 146.496413,272.178357 C161.131228,272.178357 175.165825,269.645898 188.229549,265.054471 C187.879121,264.505916 187.57975,263.926371 187.3352,263.32312 L148.701201,157.488337 Z M256.769267,86.1992589 C257.309703,90.2024093 257.615791,94.5020894 257.615791,99.1222128 C257.615791,111.87538 255.234046,126.211632 248.060117,144.137328 L209.672423,255.127901 C247.034246,233.340146 272.164677,192.861456 272.164677,146.495217 C272.198034,125.420034 266.90215,104.678548 256.769267,86.1992589 L256.769267,86.1992589 Z"></path>
                            <path d="M146.496413,0 C65.7203637,0 0,65.7171901 0,146.495217 C0,227.28281 65.7179724,293 146.496413,293 C227.270071,293 293,227.285201 293,146.495217 C293,65.7171901 227.270071,0 146.496413,0 Z M146.496413,286.282647 C69.4245024,286.282647 6.71718886,223.573798 6.71718886,146.495217 C6.71718886,69.4238108 69.422111,6.7197447 146.496413,6.7197447 C223.565932,6.7197447 286.268463,69.4238108 286.268463,146.495217 C286.268463,223.573798 223.563541,286.282647 146.496413,286.282647 Z"></path>
                        </g>
                    </g>
                    <path d="M748.821414,115.446041 L698.024477,115.446041 L698.024477,120.84734 C713.913306,120.84734 716.467849,124.260577 716.467849,144.454967 L716.467849,180.867625 C716.467849,201.062015 713.918085,204.762683 698.024477,204.762683 C685.827669,203.054866 677.592911,196.513427 666.242041,183.995827 L653.189735,169.775202 C670.779999,166.642209 680.145065,155.552181 680.145065,143.034581 C680.145065,127.39357 666.810779,115.446041 641.836475,115.446041 L591.892646,115.446041 L591.892646,120.84734 C607.781475,120.84734 610.336018,124.260577 610.336018,144.454967 L610.336018,180.867625 C610.336018,201.062015 607.783865,204.762683 591.892646,204.762683 L591.892646,210.166377 L648.362628,210.166377 L648.362628,204.762683 C632.476189,204.762683 629.919256,201.062015 629.919256,180.867625 L629.919256,170.632703 L634.743973,170.632703 L666.24443,210.166377 L748.823803,210.166377 C789.402567,210.166377 807,188.551601 807,162.663691 C806.995221,136.778177 789.402567,115.446041 748.821414,115.446041 L748.821414,115.446041 Z M629.921646,161.80619 L629.921646,123.980333 L641.554496,123.980333 C654.322432,123.980333 660.000257,132.797264 660.000257,143.036977 C660.000257,152.994049 654.322432,161.808585 641.554496,161.808585 L629.921646,161.80619 Z M749.674521,201.34705 L747.686327,201.34705 C737.472933,201.34705 736.053477,198.791313 736.053477,185.706039 L736.053477,123.980333 L749.674521,123.980333 C779.186784,123.980333 784.573071,145.595108 784.573071,162.378656 C784.57546,179.727484 779.184394,201.34705 749.674521,201.34705 L749.674521,201.34705 Z M433.835961,172.335729 L453.41442,114.303505 C459.092245,97.5223526 456.540091,92.6911245 438.376309,92.6911245 L438.376309,87 L491.725399,87 L491.725399,92.6911245 C473.850765,92.6911245 469.592397,96.9546773 462.499895,117.719138 L430.146331,215 L426.45909,215 L397.510787,125.968394 L368.000914,215 L364.308894,215 L332.810827,117.721533 C326.000305,96.9570726 321.459957,92.6935197 305,92.6935197 L305,87.0023953 L367.998524,87.0023953 L367.998524,92.6935197 C351.251809,92.6935197 346.711461,96.6744325 352.673655,114.3059 L371.685765,172.338124 L400.34492,87.0023953 L405.740765,87.0023953 L433.835961,172.335729 L433.835961,172.335729 Z M530.315968,213.859859 C499.10227,213.859859 473.561617,190.822302 473.561617,162.658901 C473.561617,134.78293 499.10227,111.742978 530.315968,111.742978 C561.529666,111.742978 587.070319,134.78293 587.070319,162.658901 C587.070319,190.822302 561.532056,213.859859 530.315968,213.859859 Z M530.315968,120.567095 C504.211356,120.567095 495.125881,144.169932 495.125881,162.661296 C495.125881,181.437695 504.211356,204.760287 530.315968,204.760287 C556.709728,204.760287 565.790424,181.437695 565.790424,162.661296 C565.790424,144.169932 556.709728,120.567095 530.315968,120.567095 Z" id="Shape" fill="#1D2E3B" fill-rule="nonzero"></path>
                    <path d="M877.022343,204.605204 L877.022343,210.30011 L812,210.30011 L812,204.605204 C831.025623,204.605204 834.432876,199.763934 834.432876,171.284608 L834.432876,125.730156 C834.432876,97.2508308 831.025623,92.6997017 812,92.6997017 L812,87 L870.774517,87 C900.017117,87 916.20934,102.0921 916.20934,122.313213 C916.20934,141.961238 900.019508,157.336285 870.774517,157.336285 L854.587076,157.336285 L854.587076,171.284608 C854.589467,199.766332 857.994329,204.605204 877.022343,204.605204 L877.022343,204.605204 Z M870.774517,97.2508308 L854.587076,97.2508308 L854.587076,146.80011 L870.774517,146.80011 C886.675031,146.80011 894.056218,135.695642 894.056218,122.313213 C894.058608,108.645438 886.677422,97.2508308 870.774517,97.2508308 Z M1111.27159,183.53525 L1109.84891,188.659467 C1107.29765,198.056661 1104.16776,201.473605 1084.00878,201.473605 L1080.03246,201.473605 C1065.27008,201.473605 1062.71405,198.056661 1062.71405,177.842742 L1062.71405,164.745657 C1084.86239,164.745657 1086.56721,166.735877 1086.56721,181.545031 L1091.96382,181.545031 L1091.96382,139.112586 L1086.56721,139.112586 C1086.56721,153.919341 1084.86239,155.911959 1062.71405,155.911959 L1062.71405,124.022883 L1078.32763,124.022883 C1098.4914,124.022883 1101.61173,127.439827 1104.16776,136.837021 L1105.59283,142.246583 L1110.13105,142.246583 L1108.14648,115.481723 L1024.66519,115.481723 L1024.66519,120.888887 C1040.56332,120.888887 1043.12174,124.30583 1043.12174,144.522147 L1043.12174,180.971943 C1043.12174,199.4666 1040.95306,204.125633 1028.41676,204.792236 C1016.50213,202.965071 1008.32233,196.450098 997.129806,184.103542 L984.067474,169.867476 C1001.67281,166.731081 1011.04335,155.629012 1011.04335,143.097821 C1011.04335,127.439827 997.698877,115.479326 972.712355,115.479326 L922.73931,115.479326 L922.73931,120.886489 C938.637433,120.886489 941.195862,124.303433 941.195862,144.519749 L941.195862,180.971943 C941.195862,201.18826 938.642215,204.892946 922.73931,204.892946 L922.73931,210.302507 L979.244716,210.302507 L979.244716,204.892946 C963.348984,204.892946 960.788165,201.18826 960.788165,180.971943 L960.788165,170.725908 L965.618095,170.725908 L997.134588,210.302507 L1113.83241,210.302507 L1115.53723,183.540046 L1111.27159,183.53525 L1111.27159,183.53525 Z M960.785773,161.889812 L960.785773,124.022883 L972.425428,124.022883 C985.203225,124.022883 990.884371,132.849388 990.884371,143.100219 C990.884371,153.068103 985.203225,161.89221 972.425428,161.89221 L960.785773,161.889812 Z M1168.91035,214 C1157.55284,214 1147.61323,208.022147 1143.35476,204.317461 C1141.93208,205.744185 1139.38083,210.014765 1138.81415,214 L1133.41754,214 L1133.41754,174.706348 L1139.09629,174.706348 C1141.37018,193.500736 1154.42773,204.605204 1171.18185,204.605204 C1180.26786,204.605204 1187.65144,199.478589 1187.65144,190.939827 C1187.65144,183.537648 1181.12386,177.840344 1169.47942,172.430783 L1153.29198,164.74326 C1141.93208,159.328903 1133.41754,149.92931 1133.41754,137.405313 C1133.41754,123.737539 1146.19533,112.06478 1163.80067,112.06478 C1173.17121,112.06478 1181.11908,115.484121 1185.94901,119.469357 C1187.3669,118.327977 1188.78958,115.196379 1189.6408,111.777037 L1195.03502,111.777037 L1195.03502,145.380579 L1189.07173,145.380579 C1187.08237,131.995752 1179.70118,120.891285 1164.65428,120.891285 C1156.70402,120.891285 1149.32044,125.444812 1149.32044,132.568839 C1149.32044,139.971018 1155.28134,143.956253 1168.91274,150.219451 L1184.52633,157.906975 C1198.15773,164.455517 1203.54956,174.996488 1203.54956,183.537648 C1203.54956,201.473605 1187.93358,214 1168.91035,214 L1168.91035,214 Z M1256.36318,214 C1245.00328,214 1235.06366,208.022147 1230.80759,204.317461 C1229.3873,205.744185 1226.83365,210.014765 1226.26937,214 L1220.87275,214 L1220.87275,174.706348 L1226.55151,174.706348 C1228.82301,193.500736 1241.88056,204.605204 1258.63707,204.605204 C1267.72308,204.605204 1275.10666,199.478589 1275.10666,190.939827 C1275.10666,183.537648 1268.57669,177.840344 1256.93225,172.430783 L1240.74481,164.74326 C1229.3873,159.328903 1220.87036,149.92931 1220.87036,137.405313 C1220.87036,123.737539 1233.64816,112.06478 1251.2535,112.06478 C1260.62404,112.06478 1268.56952,115.484121 1273.40184,119.469357 C1274.81973,118.327977 1276.24002,115.196379 1277.08884,111.777037 L1282.48545,111.777037 L1282.48545,145.380579 L1276.52455,145.380579 C1274.5352,131.995752 1267.15401,120.891285 1252.1071,120.891285 C1244.15685,120.891285 1236.77088,125.444812 1236.77088,132.568839 C1236.77088,139.971018 1242.73417,143.956253 1256.36557,150.219451 L1271.97916,157.906975 C1285.60817,164.455517 1291,174.996488 1291,183.537648 C1291,201.473605 1275.38402,214 1256.36318,214 L1256.36318,214 Z" id="Shape" fill="#1D2E3B" fill-rule="nonzero"></path>
                </g>
                <g id="wix-com-website-logo-1" transform="translate(1986.000000, 11.000000)" fill="#1D2E3B" fill-rule="nonzero">
                    <path d="M431.703704,5.19421473 C417.259259,12.4806583 411,26.0820195 411,63 C411,63 418.222222,55.7135565 429.777778,51.3416904 C438.203704,48.1842315 444.222222,44.0552468 448.555556,40.897788 C461.074074,31.4254114 463,20.0099832 463,0.0937042634 C462.759259,0.0937042634 443.018519,-1.12070299 431.703704,5.19421473 L431.703704,5.19421473 Z" id="Path"></path>
                    <path d="M342.11865,14.9933018 C329.528296,25.3805526 326.380707,43.2562865 326.380707,43.2562865 L285.70418,198.823484 L252.291318,71.5192712 C249.14373,57.9916888 242.848553,41.3237747 233.405788,29.7287041 C221.783923,14.9933018 197.571704,14.0270459 194.666238,14.0270459 C192.487138,14.0270459 168.517042,14.9933018 155.926688,29.7287041 C146.483923,41.3237747 140.188746,57.9916888 137.041158,71.5192712 L105.565273,198.823484 L64.888746,43.2562865 C64.888746,43.2562865 61.7411576,26.5883724 49.1508039,14.9933018 C29.2967846,-2.88243213 0,1.46571937 0,1.46571937 L77.4790997,292.550305 C77.4790997,292.550305 102.659807,294.724381 115.250161,288.443718 C131.956592,279.988979 140.430868,273.94988 149.873633,234.091824 C159.316399,198.58192 184.497106,95.1925404 186.434084,87.9456213 C187.402572,84.8052896 189.581672,75.3842947 195.876849,75.3842947 C202.172026,75.3842947 204.351125,83.8390338 205.319614,87.9456213 C207.498714,95.1925404 232.437299,198.58192 241.880064,234.091824 C252.291318,273.708316 259.554984,279.988979 276.503537,288.443718 C289.093891,294.724381 314.274598,292.550305 314.274598,292.550305 L391.269453,1.46571937 C391.269453,1.46571937 361.972669,-2.64086815 342.11865,14.9933018 Z M462.211254,48.3291299 C462.211254,48.3291299 456.884566,55.5760491 446.473312,61.8567123 C439.209646,65.9632998 432.914469,68.1373756 425.650804,72.2439631 C413.06045,78.5246264 409.912862,84.8052896 409.912862,94.2262845 L409.912862,291.58405 C409.912862,291.58405 429.766881,293.758125 442.357235,287.477462 C459.063666,279.022723 462.211254,270.809548 462.211254,235.299644 L462.211254,59.9242005 L462.211254,48.3291299 Z M654.698392,147.611922 L753,2.43197525 C753,2.43197525 712.323473,-4.8149439 691.258842,14.0270459 C677.7,25.6221165 664.141158,47.362874 664.141158,47.362874 L628.549196,99.5406919 C626.370096,102.681024 624.433119,104.855099 621.285531,104.855099 C618.137942,104.855099 614.990354,101.714768 614.021865,99.5406919 L578.429904,47.362874 C578.429904,47.362874 563.902572,26.5883724 551.312219,14.0270459 C530.489711,-4.8149439 489.571061,2.43197525 489.571061,2.43197525 L584.72508,147.370358 L487.391961,292.308741 C487.391961,292.308741 530.247588,297.623149 551.312219,278.781159 C564.871061,267.186088 577.461415,247.377843 577.461415,247.377843 L613.053376,195.200025 C615.232476,192.059693 617.169453,189.885617 620.317042,189.885617 C623.46463,189.885617 626.612219,193.025949 627.580707,195.200025 L663.172669,247.377843 C663.172669,247.377843 676.731511,267.186088 689.321865,278.781159 C710.144373,297.623149 752.031511,292.308741 752.031511,292.308741 L654.698392,147.611922 Z" id="Shape"></path>
                </g>
                <g id="squarespace" fill="#1D2E3B" fill-rule="nonzero">
                    <path d="M234.849565,58.5279729 C227.89769,51.5857384 216.624496,51.5857384 209.676945,58.5279729 L96.3871801,171.638617 C82.4762227,185.51589 59.9384827,185.51589 46.0376151,171.638617 C32.1223335,157.755587 32.1223335,135.250889 46.0376151,121.360664 L157.14654,10.4331394 C143.24279,-3.45276868 120.696402,-3.45276868 106.792651,10.4331394 L20.8534635,96.2324803 C-6.95115449,123.99854 -6.95115449,169.007936 20.8534635,196.776874 C48.6652884,224.544373 93.7450928,224.544373 121.556918,196.776874 L234.849565,83.6647908 C241.797116,76.7239955 241.797116,65.4687683 234.849565,58.5279729 L234.849565,58.5279729 Z M272.61282,20.8277828 C244.800995,-6.94259427 199.721191,-6.94259427 171.909366,20.8277828 L58.6224839,133.93267 C51.6749329,140.869148 51.6749329,152.131571 58.6224839,159.069488 C65.5743591,166.010284 76.8417877,166.010284 83.7951043,159.069488 L197.092076,45.9646008 C210.995826,32.0786927 233.533566,32.0786927 247.434434,45.9646008 C254.393516,52.9010788 265.662386,52.9010788 272.614261,45.9646008 C279.566136,39.0166099 279.566136,27.7685782 272.614261,20.8277828 L272.61282,20.8277828 Z M310.378958,133.93267 C303.427082,126.99907 292.151005,126.99907 285.19913,133.93267 L171.909366,247.041875 C158.005615,260.923466 135.460668,260.923466 121.556918,247.041875 C114.609367,240.105397 103.339055,240.105397 96.3871801,247.041875 C89.4252151,253.985549 89.4252151,265.240776 96.3871801,272.174376 C124.187474,299.941875 169.278809,299.941875 197.090634,272.174376 L310.378958,159.069488 C317.326508,152.13301 317.326508,140.870588 310.378958,133.93267 Z M348.146537,96.2339194 C320.334712,68.4707378 275.2477,68.4707378 247.443082,96.2339194 L134.146111,209.346002 C127.194236,216.279602 127.194236,227.542025 134.146111,234.478503 C141.10231,241.423616 152.375504,241.423616 159.323055,234.478503 L272.61282,121.369298 C286.512246,107.484829 309.061517,107.484829 322.962385,121.369298 C336.866135,135.252328 336.866135,157.757026 322.962385,171.640056 L211.85346,282.574776 C225.75721,296.452049 248.292067,296.452049 262.207349,282.574776 L348.146537,196.775435 C375.951154,169.005058 375.951154,123.997101 348.146537,96.2339194 L348.146537,96.2339194 Z" id="Shape"></path>
                </g>
            </g>
        </g>
    </g>
</svg>