<svg xmlns="http://www.w3.org/2000/svg" width="114" height="26" viewBox="0 0 114 26" fill="none"><path d="M27.5427 6.21875H30.1752V18.8625H27.5427V6.21875Z" fill="#262B2C"></path><path d="M31.6493 14.5313C31.6494 13.6216 31.9202 12.7324 32.4276 11.9764C32.935 11.2204 33.656 10.6316 34.4993 10.2847C35.3427 9.93784 36.2703 9.84841 37.1646 10.0278C38.059 10.2072 38.8798 10.6473 39.523 11.2924C40.1662 11.9375 40.6029 12.7584 40.7777 13.6513C40.9524 14.5441 40.8574 15.4686 40.5047 16.3075C40.152 17.1464 39.5574 17.862 38.7964 18.3636C38.0353 18.8652 37.1421 19.1302 36.2298 19.125C35.6248 19.1297 35.0249 19.0139 34.4653 18.7844C33.9057 18.5549 33.3977 18.2163 32.971 17.7884C32.5444 17.3606 32.2078 16.8521 31.9808 16.2928C31.7538 15.7334 31.6411 15.1346 31.6493 14.5313V14.5313ZM38.2481 14.5313C38.2377 14.1391 38.1116 13.7587 37.8856 13.4376C37.6596 13.1165 37.3436 12.869 36.9772 12.726C36.6109 12.583 36.2104 12.5509 35.8258 12.6337C35.4412 12.7165 35.0897 12.9105 34.8151 13.1915C34.5406 13.4725 34.3552 13.828 34.2822 14.2135C34.2091 14.599 34.2517 14.9974 34.4046 15.3589C34.5574 15.7203 34.8138 16.0289 35.1415 16.2459C35.4693 16.4628 35.854 16.5786 36.2474 16.5788C36.5153 16.584 36.7813 16.534 37.0289 16.4321C37.2766 16.3301 37.5004 16.1783 37.6866 15.9861C37.8727 15.7939 38.0171 15.5656 38.1107 15.3152C38.2042 15.0649 38.2451 14.798 38.2305 14.5313H38.2481Z" fill="#262B2C"></path><path d="M51.2259 10.2V18.4337C51.2259 21.3387 48.9445 22.5725 46.6367 22.5725C45.8227 22.6391 45.0062 22.4778 44.2791 22.1068C43.552 21.7358 42.9432 21.1698 42.5212 20.4725L44.7413 19.195C44.9212 19.5567 45.2074 19.8551 45.5617 20.0505C45.916 20.2459 46.3216 20.329 46.7244 20.2887C46.9811 20.3203 47.2415 20.2949 47.4872 20.2143C47.7328 20.1338 47.9576 20.0001 48.1454 19.8229C48.3332 19.6456 48.4794 19.4292 48.5735 19.1891C48.6677 18.9489 48.7075 18.691 48.69 18.4337V17.6375C48.3837 18.0078 47.995 18.3019 47.5548 18.4963C47.1146 18.6907 46.635 18.7802 46.1541 18.7575C44.9904 18.7575 43.8745 18.2965 43.0517 17.4761C42.2289 16.6556 41.7666 15.5428 41.7666 14.3825C41.7666 13.2222 42.2289 12.1094 43.0517 11.2889C43.8745 10.4684 44.9904 10.0075 46.1541 10.0075C46.635 9.9848 47.1146 10.0742 47.5548 10.2686C47.995 10.463 48.3837 10.7571 48.69 11.1275V10.2525L51.2259 10.2ZM48.69 14.3562C48.7075 13.9376 48.599 13.5233 48.3785 13.1667C48.158 12.81 47.8356 12.5273 47.4526 12.3548C47.0697 12.1824 46.6437 12.1281 46.2296 12.199C45.8155 12.2699 45.4321 12.4626 45.1287 12.7526C44.8253 13.0425 44.6159 13.4162 44.5273 13.8258C44.4386 14.2354 44.4749 14.662 44.6314 15.0508C44.7879 15.4397 45.0574 15.773 45.4054 16.0078C45.7534 16.2427 46.1638 16.3684 46.584 16.3687C46.8582 16.3884 47.1335 16.3506 47.3921 16.2576C47.6506 16.1646 47.8868 16.0186 48.0853 15.8289C48.2837 15.6392 48.4401 15.4102 48.5443 15.1565C48.6484 14.9028 48.6981 14.6302 48.69 14.3562V14.3562Z" fill="#262B2C"></path><path d="M52.709 14.5312C52.709 13.6223 52.9795 12.7338 53.486 11.9782C53.9926 11.2226 54.7126 10.6338 55.5549 10.2863C56.3972 9.93891 57.324 9.84845 58.2178 10.0264C59.1117 10.2044 59.9326 10.6428 60.5765 11.2861C61.2204 11.9294 61.6585 12.7487 61.8352 13.6404C62.012 14.5321 61.9195 15.456 61.5695 16.2953C61.2195 17.1345 60.6276 17.8513 59.8689 18.3551C59.1101 18.8588 58.2186 19.1267 57.3071 19.125C56.7009 19.1309 56.0996 19.016 55.5385 18.7871C54.9774 18.5582 54.4678 18.2199 54.0396 17.792C53.6113 17.3642 53.273 16.8554 53.0445 16.2954C52.8161 15.7355 52.702 15.1357 52.709 14.5312ZM59.3078 14.5312C59.2974 14.1387 59.1711 13.7579 58.9447 13.4367C58.7182 13.1154 58.4018 12.8679 58.0349 12.7252C57.668 12.5825 57.2671 12.5509 56.8823 12.6344C56.4975 12.7179 56.146 12.9128 55.8718 13.1947C55.5976 13.4765 55.4129 13.8328 55.3409 14.2188C55.2688 14.6049 55.3127 15.0036 55.4668 15.3649C55.621 15.7262 55.8787 16.0341 56.2076 16.2501C56.5366 16.466 56.9221 16.5803 57.3159 16.5787C57.5837 16.584 57.8498 16.534 58.0974 16.432C58.345 16.3301 58.5689 16.1782 58.755 15.9861C58.9412 15.7939 59.0855 15.5655 59.1791 15.3152C59.2727 15.0649 59.3135 14.798 59.299 14.5312H59.3078Z" fill="#262B2C"></path><path d="M63.1248 7.88123C63.1248 7.57319 63.2164 7.27206 63.388 7.01593C63.5596 6.7598 63.8036 6.56017 64.089 6.44229C64.3744 6.3244 64.6884 6.29356 64.9914 6.35366C65.2944 6.41375 65.5727 6.56209 65.7911 6.77991C66.0096 6.99773 66.1583 7.27525 66.2186 7.57738C66.2789 7.8795 66.2479 8.19266 66.1297 8.47726C66.0115 8.76185 65.8113 9.0051 65.5544 9.17624C65.2976 9.34738 64.9956 9.43873 64.6867 9.43873C64.2739 9.43418 63.8792 9.26862 63.5873 8.97752C63.2953 8.68641 63.1293 8.29289 63.1248 7.88123V7.88123ZM63.3792 10.2H66.0117V18.8625H63.3792V10.2Z" fill="#262B2C"></path><path d="M77.2787 14.5312C77.3082 15.1073 77.2232 15.6836 77.0285 16.2268C76.8338 16.77 76.5333 17.2694 76.1442 17.6964C75.7552 18.1233 75.2854 18.4694 74.7617 18.7145C74.2381 18.9597 73.671 19.0992 73.0931 19.125C72.6027 19.1575 72.1112 19.0792 71.6554 18.8959C71.1996 18.7126 70.7911 18.429 70.4606 18.0662V22.345H67.8281V10.2H70.4606V11.0137C70.7916 10.6521 71.2003 10.3698 71.6562 10.188C72.112 10.0061 72.6033 9.92948 73.0931 9.96374C73.6687 9.98959 74.2335 10.1282 74.7554 10.3718C75.2772 10.6153 75.7459 10.9589 76.1345 11.3831C76.5232 11.8072 76.8243 12.3035 77.0206 12.8437C77.2169 13.3838 77.3046 13.9573 77.2787 14.5312V14.5312ZM74.6462 14.5312C74.6359 14.1248 74.5054 13.7305 74.2713 13.3978C74.0371 13.065 73.7097 12.8085 73.33 12.6605C72.9503 12.5125 72.5352 12.4795 72.1368 12.5657C71.7384 12.652 71.3744 12.8535 71.0904 13.1452C70.8063 13.4368 70.615 13.8056 70.5402 14.2052C70.4655 14.6048 70.5107 15.0176 70.6702 15.3917C70.8297 15.7658 71.0964 16.0847 71.4369 16.3083C71.7774 16.5319 72.1764 16.6503 72.5841 16.6487C72.8634 16.6606 73.142 16.6134 73.4016 16.5103C73.6613 16.4072 73.8962 16.2506 74.0909 16.0507C74.2856 15.8507 74.4357 15.612 74.5314 15.3501C74.6271 15.0883 74.6663 14.8092 74.6462 14.5312V14.5312Z" fill="#262B2C"></path><path d="M85.2904 16.2638C85.2904 18.2588 83.5354 19.1075 81.6751 19.1075C80.9164 19.1756 80.1546 19.0152 79.4882 18.6471C78.8218 18.279 78.2815 17.7201 77.937 17.0425L80.2009 15.765C80.2906 16.0772 80.4851 16.3493 80.7518 16.5356C81.0186 16.722 81.3414 16.8113 81.6663 16.7888C82.2894 16.7888 82.6052 16.5963 82.6052 16.2463C82.6052 15.2925 78.3319 15.8 78.3319 12.7988C78.3319 10.9088 79.9289 9.96376 81.7365 9.96376C82.4236 9.93308 83.1063 10.0885 83.7119 10.4136C84.3175 10.7387 84.8236 11.2212 85.1763 11.81L82.9124 13C82.8124 12.7743 82.6489 12.5823 82.4418 12.4472C82.2347 12.3121 81.9928 12.2397 81.7453 12.2388C81.289 12.2388 81.017 12.4138 81.017 12.72C81.017 13.7175 85.2904 13.0613 85.2904 16.2638Z" fill="#262B2C"></path><path d="M94.8286 10.2V18.8625H92.1961V18.0487C91.897 18.4089 91.5173 18.694 91.0875 18.881C90.6576 19.0679 90.1897 19.1515 89.7216 19.125C87.9666 19.125 86.4661 17.8737 86.4661 15.5375V10.2H89.0985V15.1437C89.0778 15.3504 89.1024 15.5591 89.1705 15.7554C89.2386 15.9517 89.3486 16.1309 89.4929 16.2807C89.6373 16.4304 89.8125 16.5472 90.0065 16.6228C90.2005 16.6984 90.4087 16.7312 90.6166 16.7187C91.5643 16.7187 92.2312 16.1587 92.2312 14.9687V10.2H94.8286Z" fill="#262B2C"></path><path d="M109.746 13.5425V18.8625H107.113V13.77C107.113 12.895 106.701 12.3525 105.867 12.3525C105.034 12.3525 104.507 12.9563 104.507 13.98V18.8625H101.875V13.77C101.875 12.895 101.462 12.3525 100.629 12.3525C99.7952 12.3525 99.2687 12.9563 99.2687 13.98V18.8625H96.6362V10.2H99.2687V10.9963C99.5412 10.6445 99.8973 10.3659 100.305 10.1856C100.712 10.0054 101.158 9.92914 101.603 9.96377C102.048 9.94062 102.492 10.0333 102.89 10.2327C103.289 10.4321 103.628 10.7315 103.876 11.1013C104.165 10.7149 104.547 10.4079 104.988 10.209C105.428 10.0101 105.912 9.92571 106.394 9.96377C108.447 9.96377 109.746 11.3813 109.746 13.5425Z" fill="#262B2C"></path><path d="M11.8621 3.94376V0.225006H0.10376V25.775H11.8621V22.0563C9.45341 22.0563 7.14337 21.1021 5.44016 19.4037C3.73695 17.7054 2.7801 15.4019 2.7801 13C2.7801 10.5981 3.73695 8.29465 5.44016 6.59627C7.14337 4.89789 9.45341 3.94376 11.8621 3.94376V3.94376Z" fill="#262B2C"></path><path d="M11.8621 3.94376V22.0563C14.2708 22.0563 16.5808 21.1021 18.284 19.4037C19.9872 17.7054 20.9441 15.4019 20.9441 13C20.9441 10.5981 19.9872 8.29465 18.284 6.59627C16.5808 4.89789 14.2708 3.94376 11.8621 3.94376V3.94376Z" fill="#262B2C"></path><path d="M111.957 10.1475C113.024 10.1475 113.888 9.28563 113.888 8.22249C113.888 7.15934 113.024 6.29749 111.957 6.29749C110.891 6.29749 110.027 7.15934 110.027 8.22249C110.027 9.28563 110.891 10.1475 111.957 10.1475Z" fill="#262B2C"></path></svg>