<svg xmlns="http://www.w3.org/2000/svg" width="100" height="24" viewBox="0 0 100 24" fill="none"><path d="M0.0283203 23.2219H22.5362V0.778107H0.0283203V23.2219ZM18.204 9.84048H13.4479V5.09798H18.204V9.84048ZM4.35966 5.09798H9.11833V14.1595H18.204V18.902H4.35966V5.09798ZM37.193 0.778107C34.9672 0.778107 32.7914 1.43626 30.9407 2.66933C29.09 3.90241 27.6476 5.65503 26.7958 7.70556C25.944 9.75609 25.7211 12.0124 26.1554 14.1893C26.5896 16.3661 27.6614 18.3656 29.2353 19.935C30.8092 21.5044 32.8145 22.5732 34.9975 23.0062C37.1806 23.4392 39.4433 23.217 41.4997 22.3676C43.5561 21.5183 45.3137 20.0799 46.5503 18.2345C47.7869 16.3891 48.447 14.2195 48.447 12C48.4435 9.02482 47.2567 6.17251 45.1469 4.06876C43.0372 1.965 40.1767 0.78158 37.193 0.778107V0.778107ZM37.193 18.902C35.8241 18.902 34.4858 18.4972 33.3475 17.7388C32.2093 16.9804 31.3221 15.9024 30.7982 14.6413C30.2743 13.3801 30.1373 11.9923 30.4043 10.6535C30.6714 9.31461 31.3306 8.08479 32.2987 7.11953C33.2667 6.15427 34.5 5.49692 35.8427 5.2306C37.1854 4.96429 38.5771 5.10097 39.8419 5.62336C41.1066 6.14576 42.1877 7.03041 42.9482 8.16543C43.7088 9.30046 44.1148 10.6349 44.1148 12C44.112 13.8297 43.3818 15.5836 42.0844 16.8774C40.7869 18.1711 39.0279 18.8992 37.193 18.902V18.902ZM88.7189 0.778107C86.4931 0.777934 84.3172 1.43594 82.4663 2.66891C80.6155 3.90188 79.1729 5.65444 78.321 7.70495C77.4691 9.75546 77.2461 12.0118 77.6803 14.1887C78.1144 16.3656 79.1862 18.3652 80.76 19.9347C82.3339 21.5042 84.3391 22.5731 86.5222 23.0062C88.7053 23.4392 90.9681 23.2171 93.0245 22.3677C95.081 21.5184 96.8386 20.0801 98.0753 18.2346C99.3119 16.3892 99.972 14.2195 99.972 12C99.9685 9.02497 98.7818 6.17279 96.6722 4.06906C94.5627 1.96533 91.7024 0.781812 88.7189 0.778107V0.778107ZM88.7189 18.902C87.3499 18.9022 86.0116 18.4975 84.8732 17.7392C83.7348 16.9809 82.8475 15.903 82.3235 14.6419C81.7994 13.3807 81.6622 11.9929 81.9292 10.654C82.1962 9.31509 82.8554 8.08519 83.8233 7.11984C84.7913 6.15449 86.0247 5.49705 87.3674 5.23066C88.7101 4.96428 90.1018 5.10091 91.3667 5.62328C92.6315 6.14565 93.7126 7.0303 94.4732 8.16534C95.2338 9.30039 95.6398 10.6349 95.6398 12C95.637 13.8295 94.907 15.5833 93.6097 16.8771C92.3124 18.1708 90.5537 18.899 88.7189 18.902V18.902ZM62.9555 0.778107C60.7297 0.778107 58.5539 1.43626 56.7032 2.66933C54.8525 3.90241 53.4101 5.65503 52.5583 7.70556C51.7065 9.75609 51.4836 12.0124 51.9179 14.1893C52.3521 16.3661 53.4239 18.3656 54.9978 19.935C56.5717 21.5044 58.577 22.5732 60.76 23.0062C62.9431 23.4392 65.2059 23.217 67.2622 22.3676C69.3186 21.5183 71.0762 20.0799 72.3128 18.2345C73.5494 16.3891 74.2095 14.2195 74.2095 12C74.206 9.02482 73.0192 6.17251 70.9094 4.06876C68.7997 1.965 65.9392 0.78158 62.9555 0.778107ZM62.9555 18.902C61.6801 18.9026 60.4292 18.5518 59.3411 17.8883C58.2529 17.2248 57.3698 16.2744 56.7892 15.142C56.2085 14.0096 55.953 12.7392 56.0507 11.4711C56.1484 10.203 56.5957 8.98649 57.343 7.95585C58.0903 6.92521 59.1088 6.12051 60.2858 5.6306C61.4628 5.14068 62.7528 4.98459 64.0132 5.17956C65.2736 5.37454 66.4554 5.91298 67.4283 6.73547C68.4011 7.55795 69.1272 8.6325 69.5263 9.84048H62.9555V14.1595H69.5263C69.0692 15.5379 68.1885 16.7378 67.0091 17.589C65.8297 18.4403 64.4115 18.8997 62.9555 18.902V18.902Z" fill="#262B2C"></path></svg>