<svg xmlns="http://www.w3.org/2000/svg" width="112" height="30" viewBox="0 0 112 30" fill="none"><path d="M18.5662 7.46626H20.3211V19.6463H25.5861V21.3963H18.5662V7.46626ZM31.0528 7.46626C32.0941 7.46626 33.1121 7.77417 33.9779 8.35105C34.8437 8.92792 35.5185 9.74786 35.917 10.7072C36.3155 11.6665 36.4197 12.7221 36.2166 13.7405C36.0135 14.7589 35.512 15.6943 34.7757 16.4286C34.0394 17.1628 33.1013 17.6628 32.08 17.8654C31.0587 18.068 30.0001 17.964 29.038 17.5666C28.076 17.1693 27.2537 16.4964 26.6752 15.633C26.0967 14.7696 25.7879 13.7546 25.7879 12.7163C25.7879 12.0268 25.9241 11.3441 26.1887 10.7072C26.4533 10.0702 26.8411 9.49146 27.33 9.00395C27.8189 8.51644 28.3993 8.12973 29.038 7.86589C29.6768 7.60205 30.3614 7.46626 31.0528 7.46626V7.46626ZM31.0528 16.2163C31.747 16.2163 32.4256 16.011 33.0029 15.6264C33.5801 15.2418 34.0299 14.6952 34.2956 14.0557C34.5613 13.4161 34.6308 12.7124 34.4953 12.0334C34.3599 11.3545 34.0256 10.7309 33.5347 10.2414C33.0439 9.7519 32.4185 9.41856 31.7376 9.28351C31.0567 9.14846 30.351 9.21777 29.7096 9.48268C29.0683 9.74759 28.5201 10.1962 28.1344 10.7718C27.7487 11.3473 27.5429 12.024 27.5429 12.7163C27.5475 13.6415 27.9194 14.5272 28.5771 15.1798C29.2348 15.8324 30.125 16.1988 31.0528 16.1988V16.2163ZM27.5429 19.6638H34.5628V21.4138H27.5429V19.6638ZM50.0066 21.4138H48.2516V20.1625C47.1198 20.9525 45.7722 21.377 44.3907 21.3788C43.2126 21.3866 42.0516 21.0987 41.0144 20.5416C39.9773 19.9845 39.0974 19.1761 38.4559 18.1908C37.8144 17.2055 37.4319 16.0751 37.3435 14.9037C37.2552 13.7323 37.464 12.5576 37.9505 11.4877C38.4371 10.4179 39.1858 9.48738 40.1278 8.78189C41.0697 8.07639 42.1746 7.61863 43.3405 7.45076C44.5065 7.28289 45.6961 7.41032 46.7997 7.8213C47.9033 8.23229 48.8854 8.91362 49.6556 9.80251L48.3657 10.9488C47.7799 10.2957 47.0395 9.79921 46.212 9.50455C45.3845 9.20989 44.4962 9.12644 43.6281 9.26179C42.76 9.39715 41.9396 9.74701 41.2418 10.2795C40.544 10.812 39.991 11.5101 39.6331 12.3103C39.2752 13.1105 39.1238 13.9873 39.1928 14.8608C39.2617 15.7343 39.5488 16.5767 40.0279 17.3112C40.5069 18.0457 41.1627 18.6489 41.9355 19.066C42.7083 19.483 43.5734 19.7005 44.4521 19.6988C45.1813 19.7003 45.9023 19.5447 46.5656 19.2426C47.2289 18.9406 47.819 18.4992 48.2955 17.9488H43.557V16.1988H50.0241L50.0066 21.4138ZM56.4649 7.50126C57.5062 7.50126 58.5241 7.80917 59.39 8.38604C60.2558 8.96292 60.9306 9.78286 61.3291 10.7422C61.7276 11.7015 61.8318 12.7571 61.6287 13.7755C61.4255 14.7939 60.9241 15.7293 60.1878 16.4636C59.4515 17.1978 58.5134 17.6978 57.4921 17.9004C56.4708 18.103 55.4122 17.999 54.4501 17.6016C53.4881 17.2043 52.6658 16.5314 52.0873 15.668C51.5088 14.8046 51.2 13.7896 51.2 12.7513C51.1953 12.0574 51.3287 11.3695 51.5923 10.7274C51.8559 10.0852 52.2445 9.50153 52.7358 9.01008C53.227 8.51863 53.811 8.12915 54.4541 7.86416C55.0972 7.59917 55.7866 7.46393 56.4825 7.46626L56.4649 7.50126ZM56.4649 16.2513C57.1591 16.2513 57.8377 16.046 58.4149 15.6614C58.9921 15.2768 59.442 14.7302 59.7077 14.0907C59.9733 13.4511 60.0429 12.7474 59.9074 12.0684C59.772 11.3895 59.4377 10.7659 58.9468 10.2764C58.456 9.7869 57.8305 9.45356 57.1497 9.31851C56.4688 9.18346 55.7631 9.25278 55.1217 9.51768C54.4804 9.78259 53.9322 10.2312 53.5465 10.8068C53.1608 11.3823 52.955 12.059 52.955 12.7513C52.9688 13.6734 53.3471 14.5529 54.0077 15.1984C54.6682 15.844 55.5576 16.2035 56.4825 16.1988L56.4649 16.2513ZM52.955 19.6988H59.9749V21.4488H52.955V19.6988ZM63.5989 7.46626H65.3539V21.3788H63.5989V7.46626ZM67.7845 7.46626H69.5395C69.6299 7.4567 69.7211 7.4567 69.8115 7.46626C70.5465 7.38675 71.2901 7.46248 71.9938 7.68853C72.6974 7.91458 73.3455 8.28588 73.8957 8.77826C74.446 9.27063 74.8861 9.87303 75.1873 10.5463C75.4886 11.2195 75.6443 11.9484 75.6443 12.6856C75.6443 13.4228 75.4886 14.1518 75.1873 14.825C74.8861 15.4982 74.446 16.1006 73.8957 16.593C73.3455 17.0854 72.6974 17.4567 71.9938 17.6827C71.2901 17.9088 70.5465 17.9845 69.8115 17.905H69.5395V21.405H67.7845V7.46626ZM69.5395 9.21626V16.1375H69.8115C70.3072 16.2033 70.8113 16.1628 71.29 16.0186C71.7687 15.8743 72.2109 15.6298 72.5871 15.3013C72.9634 14.9728 73.2648 14.5679 73.4714 14.1138C73.6779 13.6597 73.7848 13.1668 73.7848 12.6681C73.7848 12.1695 73.6779 11.6766 73.4714 11.2225C73.2648 10.7684 72.9634 10.3635 72.5871 10.035C72.2109 9.70648 71.7687 9.46193 71.29 9.31771C70.8113 9.1735 70.3072 9.13294 69.8115 9.19876C69.7159 9.20868 69.6217 9.22922 69.5307 9.26001L69.5395 9.21626ZM82.1841 8.47251L80.8854 9.49626C80.6614 9.26281 80.3752 9.09799 80.0604 9.02115C79.7456 8.94431 79.4154 8.95865 79.1086 9.06248C78.8017 9.16632 78.5309 9.35534 78.3281 9.60733C78.1252 9.85931 77.9987 10.1638 77.9634 10.485V10.625C77.9634 11.395 78.4987 11.9113 79.5429 11.9813C83.5618 12.2263 85.4045 14.1075 85.4045 16.5925V16.75C85.3007 17.7335 84.9159 18.6667 84.2956 19.4384C83.6754 20.2101 82.846 20.7879 81.9059 21.1031C80.9659 21.4184 79.9548 21.4577 78.993 21.2165C78.0312 20.9753 77.1591 20.4637 76.4804 19.7425L77.823 18.71C78.1355 19.044 78.5171 19.3062 78.9414 19.4784C79.3656 19.6506 79.8224 19.7288 80.28 19.7075C81.1251 19.7519 81.9548 19.4691 82.5958 18.918C83.2368 18.3669 83.6394 17.5901 83.7197 16.75V16.6275C83.7197 14.2913 81.4207 13.8625 79.4288 13.67C77.5861 13.495 76.2611 12.3488 76.2611 10.695V10.625C76.326 9.76403 76.7201 8.96079 77.3618 8.38113C78.0035 7.80146 78.844 7.48963 79.7096 7.51001C80.1683 7.4965 80.6248 7.57908 81.0495 7.7524C81.4742 7.92573 81.8577 8.18595 82.1753 8.51626L82.1841 8.47251ZM92.2752 19.6025C94.4602 19.6025 96.1888 17.2488 96.1888 14.3525V7.35251H97.9438V14.3525C97.9438 18.2025 95.4167 21.3088 92.3103 21.3088C89.204 21.3088 86.6769 18.2025 86.6769 14.3525V7.35251H88.4318V14.3525C88.3616 17.2925 90.0903 19.6463 92.2665 19.6463L92.2752 19.6025ZM111.413 21.3525H109.658V12.69L105.613 17.94L101.568 12.69V21.3788H99.8129V7.46626L105.604 15.07L111.396 7.46626L111.413 21.3525Z" fill="#262B2C"></path><path d="M10.1425 5.37499C10.1425 4.11256 9.63961 2.90183 8.7444 2.00916C7.84919 1.11649 6.63502 0.61499 5.369 0.61499C4.10298 0.61499 2.88881 1.11649 1.9936 2.00916C1.09838 2.90183 0.595459 4.11256 0.595459 5.37499V19.7687L4.52661 22.5775V29.42H6.21139V22.5775L10.1425 19.7687V5.37499ZM8.45776 13.425L6.21139 15.665V13.565L8.45776 11.325V13.425ZM2.31534 11.325L4.56171 13.565V15.665L2.31534 13.425V11.325ZM8.45776 8.94499L5.369 12.025L2.28024 8.87499V6.77499L5.369 9.85499L8.45776 6.77499V8.94499ZM5.369 2.29499C6.04831 2.29799 6.7079 2.52295 7.24675 2.93543C7.78561 3.3479 8.17401 3.92514 8.35246 4.57874L5.369 7.54499L2.38554 4.57874C2.55747 3.91864 2.94307 3.33358 3.48251 2.91432C4.02195 2.49507 4.68508 2.26506 5.369 2.25999V2.29499ZM2.28024 18.92V15.77L4.52661 18.01V20.5125L2.28024 18.92ZM6.21139 20.5212V18.01L8.45776 15.77V18.9112L6.21139 20.5212Z" fill="#262B2C"></path></svg>