<svg xmlns="http://www.w3.org/2000/svg" width="110" height="26" viewBox="0 0 110 26" fill="none"><path d="M24.1476 9.24625C24.4635 9.24625 24.5688 9.36 24.5688 9.66625V16.5962H28.1401C28.4473 16.5962 28.5613 16.71 28.5613 17.0162V17.6287C28.5613 17.935 28.4473 18.0487 28.1401 18.0487H23.4368C23.1297 18.0487 23.0068 17.935 23.0068 17.6287V9.66625C23.0068 9.36 23.1297 9.24625 23.4368 9.24625H24.1476Z" fill="#262B2C"></path><path d="M31.6765 12.3C31.6765 10.2788 32.9576 9.0625 35.1865 9.0625C37.4153 9.0625 38.6964 10.2788 38.6964 12.3V14.995C38.6964 17.0163 37.4065 18.2325 35.1865 18.2325C32.9664 18.2325 31.6765 17.0163 31.6765 14.995V12.3ZM37.2222 12.3C37.2222 11.1625 36.5115 10.55 35.2303 10.55C33.9492 10.55 33.2472 11.1713 33.2472 12.3V15.0125C33.2472 16.1588 33.9492 16.7625 35.2303 16.7625C36.5115 16.7625 37.2222 16.1325 37.2222 15.0125V12.3Z" fill="#262B2C"></path><path d="M49.1472 13.2275C49.4894 13.2275 49.5684 13.3412 49.5684 13.6475V15.31C49.5777 15.7016 49.499 16.0903 49.338 16.4476C49.1771 16.8049 48.938 17.1218 48.6383 17.375C47.8939 17.9661 46.9553 18.2593 46.0058 18.1975C43.7331 18.1975 42.4958 16.9812 42.4958 14.96V12.2475C42.4958 10.2525 43.777 9.0275 46.0058 9.0275C47.7608 9.0275 48.9015 9.71875 49.3841 11.1012C49.4111 11.1532 49.4256 11.2107 49.4264 11.2692C49.4272 11.3277 49.4143 11.3856 49.3888 11.4382C49.3632 11.4909 49.3257 11.5369 49.2792 11.5726C49.2327 11.6082 49.1785 11.6326 49.1209 11.6437L48.4364 11.88C48.1381 11.985 48.0152 11.9237 47.9099 11.6175C47.7646 11.2438 47.4984 10.929 47.1536 10.723C46.8087 10.517 46.4048 10.4315 46.0058 10.48C44.7159 10.48 44.0139 11.1012 44.0139 12.23V15.0125C44.0139 16.1587 44.7247 16.7625 46.0058 16.7625C47.2869 16.7625 48.0767 16.1762 48.0767 15.3187V14.6712H46.1725C45.8566 14.6712 45.7426 14.5487 45.7426 14.2425V13.6475C45.7426 13.3412 45.8566 13.2275 46.1725 13.2275H49.1472Z" fill="#262B2C"></path><path d="M53.1924 12.3C53.1924 10.2788 54.4735 9.0625 56.7023 9.0625C58.9312 9.0625 60.2123 10.2788 60.2123 12.3V14.995C60.2123 17.0163 58.9224 18.2325 56.7023 18.2325C54.4823 18.2325 53.1924 17.0163 53.1924 14.995V12.3ZM58.7293 12.3C58.7293 11.1625 58.0186 10.55 56.7462 10.55C55.4739 10.55 54.7543 11.1713 54.7543 12.3V15.0125C54.7543 16.1588 55.4651 16.7625 56.7462 16.7625C58.0273 16.7625 58.7293 16.1325 58.7293 15.0125V12.3Z" fill="#262B2C"></path><path d="M64.3452 9.5C64.3452 9.3075 64.4066 9.24625 64.5997 9.24625H65.0033C65.1964 9.24625 65.2402 9.3075 65.2402 9.5V17.795C65.2402 17.9875 65.2402 18.0487 65.0033 18.0487H64.5997C64.4066 18.0487 64.3452 17.9875 64.3452 17.795V9.5Z" fill="#262B2C"></path><path d="M73.2343 9.24625C73.965 9.24625 74.6659 9.53571 75.1826 10.051C75.6993 10.5662 75.9896 11.2651 75.9896 11.9937C75.9896 12.7224 75.6993 13.4213 75.1826 13.9365C74.6659 14.4518 73.965 14.7412 73.2343 14.7412H70.6018V17.795C70.6018 17.9875 70.558 18.0487 70.3737 18.0487H69.9613C69.777 18.0487 69.7068 17.9875 69.7068 17.795V9.5C69.7068 9.3075 69.777 9.24625 69.9613 9.24625H73.2343ZM73.1553 13.875C73.4065 13.875 73.6553 13.8257 73.8874 13.7298C74.1195 13.6339 74.3303 13.4934 74.508 13.3163C74.6856 13.1392 74.8265 12.9289 74.9226 12.6975C75.0188 12.466 75.0682 12.218 75.0682 11.9675C75.0682 11.717 75.0188 11.469 74.9226 11.2375C74.8265 11.0061 74.6856 10.7958 74.508 10.6187C74.3303 10.4416 74.1195 10.3011 73.8874 10.2052C73.6553 10.1093 73.4065 10.06 73.1553 10.06H70.5229V13.875H73.1553Z" fill="#262B2C"></path><path d="M82.8427 9.07125C83.5202 8.9967 84.2037 9.14203 84.7918 9.48567C85.3798 9.82931 85.841 10.3529 86.1069 10.9788C86.1771 11.1188 86.1069 11.2325 85.9665 11.3025L85.5804 11.4775C85.4225 11.5388 85.3611 11.53 85.2645 11.3638C85.0657 10.8993 84.7239 10.5099 84.2886 10.2519C83.8532 9.99398 83.3468 9.88079 82.8427 9.92875C81.3597 9.92875 80.5524 10.515 80.5524 11.565C80.5438 11.8859 80.6519 12.1991 80.8567 12.4467C81.0615 12.6944 81.3493 12.8598 81.6668 12.9125C82.1388 13.066 82.6281 13.16 83.1235 13.1925C83.7231 13.2244 84.3146 13.3453 84.8784 13.5513C85.3107 13.6876 85.6827 13.9682 85.932 14.3458C86.1813 14.7235 86.2926 15.1752 86.2473 15.625C86.2473 17.2613 85.0539 18.25 82.8602 18.25C82.1407 18.3321 81.4147 18.1658 80.8031 17.7789C80.1916 17.392 79.7315 16.8079 79.4994 16.1238C79.484 16.0926 79.4756 16.0583 79.4749 16.0236C79.4742 15.9888 79.4813 15.9542 79.4955 15.9225C79.5098 15.8907 79.5309 15.8625 79.5573 15.8398C79.5838 15.8171 79.615 15.8005 79.6486 15.7913L80.0347 15.6513C80.0651 15.6389 80.0978 15.6329 80.1306 15.6338C80.1635 15.6347 80.1958 15.6423 80.2255 15.6563C80.2552 15.6703 80.2816 15.6903 80.3032 15.715C80.3247 15.7398 80.3409 15.7687 80.3506 15.8C80.5469 16.2943 80.896 16.7134 81.3472 16.9966C81.7984 17.2798 82.3284 17.4123 82.8602 17.375C84.5187 17.375 85.3347 16.7975 85.3347 15.625C85.3502 15.3168 85.2555 15.0131 85.0675 14.768C84.8795 14.5228 84.6104 14.3521 84.3081 14.2863C83.854 14.1512 83.3859 14.069 82.9129 14.0413L81.9652 13.9188C81.6686 13.856 81.3757 13.7771 81.0877 13.6825C80.8032 13.5968 80.5381 13.4572 80.3067 13.2713C80.074 13.0611 79.8904 12.8024 79.7691 12.5136C79.6478 12.2248 79.5917 11.9129 79.6047 11.6C79.6662 10.0688 80.8157 9.07125 82.8427 9.07125Z" fill="#262B2C"></path><path d="M90.9771 15.0562C91.0143 15.675 91.2871 16.2563 91.7397 16.6813C92.1922 17.1063 92.7904 17.3429 93.4121 17.3429C94.0338 17.3429 94.632 17.1063 95.0845 16.6813C95.5371 16.2563 95.8099 15.675 95.8471 15.0562V9.5C95.8471 9.3075 95.9086 9.24625 96.1016 9.24625H96.5053C96.6983 9.24625 96.7597 9.3075 96.7597 9.5V15.0475C96.7597 17.0337 95.5839 18.2325 93.4165 18.2325C91.2491 18.2325 90.0732 17.0337 90.0732 15.0475V9.5C90.0732 9.3075 90.1347 9.24625 90.3189 9.24625H90.7314C90.9156 9.24625 90.9771 9.3075 90.9771 9.5V15.0562Z" fill="#262B2C"></path><path d="M108.869 9.24626C109.062 9.24626 109.124 9.30751 109.124 9.50001V17.795C109.124 17.9875 109.062 18.0488 108.869 18.0488H108.5C108.316 18.0488 108.255 17.9875 108.255 17.795V12.7463C108.255 12.0117 108.304 11.2779 108.404 10.55H108.351C108.077 11.2156 107.758 11.8617 107.395 12.4838L105.508 15.8C105.485 15.8575 105.445 15.9067 105.393 15.9411C105.342 15.9755 105.281 15.9934 105.219 15.9925H104.973C104.91 15.9928 104.848 15.9748 104.795 15.9406C104.742 15.9064 104.7 15.8575 104.675 15.8L102.762 12.4488C102.422 11.8356 102.129 11.198 101.884 10.5413H101.832C101.922 11.2758 101.968 12.015 101.972 12.755V17.795C101.972 17.9875 101.911 18.0488 101.718 18.0488H101.375C101.182 18.0488 101.121 17.9875 101.121 17.795V9.50001C101.121 9.30751 101.182 9.24626 101.375 9.24626H101.691C101.763 9.23955 101.836 9.2553 101.899 9.29134C101.962 9.32737 102.012 9.38193 102.042 9.44751L105.113 14.89L108.167 9.50001C108.264 9.31626 108.316 9.29001 108.509 9.29001L108.869 9.24626Z" fill="#262B2C"></path><path d="M8.53694 16.1063V22.4325C8.53694 22.675 8.44033 22.9076 8.26837 23.0791C8.0964 23.2505 7.86316 23.3469 7.61997 23.3469C7.37677 23.3469 7.14353 23.2505 6.97157 23.0791C6.7996 22.9076 6.70299 22.675 6.70299 22.4325V16.115C6.95831 16.3009 7.26444 16.4047 7.58048 16.4125C7.92502 16.4223 8.26254 16.3143 8.53694 16.1063V16.1063ZM16.3466 14.2775C16.1139 14.2775 15.8907 14.3697 15.7261 14.5338C15.5616 14.6979 15.4691 14.9204 15.4691 15.1525V16.255C15.4691 16.4975 15.5657 16.7301 15.7377 16.9016C15.9096 17.0731 16.1429 17.1694 16.3861 17.1694C16.6293 17.1694 16.8625 17.0731 17.0345 16.9016C17.2064 16.7301 17.3031 16.4975 17.3031 16.255V15.1963C17.3099 15.0708 17.2895 14.9453 17.2434 14.8284C17.1972 14.7115 17.1264 14.6058 17.0356 14.5187C16.9449 14.4315 16.8364 14.3648 16.7175 14.3232C16.5986 14.2816 16.4721 14.266 16.3466 14.2775V14.2775ZM4.71109 18.5038C4.39534 18.4943 4.08968 18.3907 3.8336 18.2063V24.55C3.8336 24.7937 3.93067 25.0274 4.10346 25.1997C4.27625 25.372 4.5106 25.4688 4.75497 25.4688C4.99933 25.4688 5.23368 25.372 5.40647 25.1997C5.57926 25.0274 5.67633 24.7937 5.67633 24.55V18.25C5.38979 18.4347 5.0517 18.5236 4.71109 18.5038V18.5038ZM13.486 12.3788C13.3671 12.3728 13.2483 12.3911 13.1367 12.4324C13.0251 12.4737 12.9231 12.5372 12.8369 12.619C12.7508 12.7009 12.6822 12.7994 12.6353 12.9085C12.5885 13.0176 12.5645 13.1351 12.5646 13.2538V18.1275C12.5646 18.3712 12.6617 18.6049 12.8345 18.7772C13.0073 18.9495 13.2416 19.0463 13.486 19.0463C13.7303 19.0463 13.9647 18.9495 14.1375 18.7772C14.3103 18.6049 14.4073 18.3712 14.4073 18.1275V13.315C14.4143 13.1887 14.3938 13.0624 14.3471 12.9448C14.3005 12.8272 14.2288 12.7211 14.1371 12.6338C14.0453 12.5465 13.9357 12.48 13.8157 12.439C13.6957 12.398 13.5683 12.3834 13.4421 12.3963L13.486 12.3788ZM10.5727 14.2513C10.2422 14.249 9.92045 14.1451 9.65135 13.9538V20.315C9.65135 20.5587 9.74842 20.7924 9.92121 20.9647C10.094 21.137 10.3284 21.2338 10.5727 21.2338C10.8171 21.2338 11.0514 21.137 11.2242 20.9647C11.397 20.7924 11.4941 20.5587 11.4941 20.315V13.9625C11.2157 14.1693 10.8759 14.2771 10.5288 14.2688L10.5727 14.2513ZM2.71919 19.125V1.35376C2.71688 1.13714 2.62896 0.930176 2.47452 0.777814C2.32008 0.625453 2.1116 0.539996 1.89435 0.540009H1.7013C1.48406 0.539996 1.27557 0.625453 1.12114 0.777814C0.966699 0.930176 0.878776 1.13714 0.876465 1.35376V19.125C0.876465 19.3432 0.963368 19.5524 1.11806 19.7066C1.27274 19.8609 1.48254 19.9475 1.7013 19.9475H1.89435C2.11311 19.9475 2.32292 19.8609 2.4776 19.7066C2.63229 19.5524 2.71919 19.3432 2.71919 19.125V19.125ZM4.80762 17.83H4.61457C4.39581 17.83 4.18601 17.7434 4.03132 17.5891C3.87663 17.4349 3.78973 17.2257 3.78973 17.0075V3.47126C3.79204 3.25464 3.87996 3.04767 4.0344 2.89531C4.18884 2.74295 4.39732 2.6575 4.61457 2.65751H4.80762C5.02487 2.6575 5.23335 2.74295 5.38778 2.89531C5.54222 3.04767 5.63014 3.25464 5.63246 3.47126V17.025C5.63246 17.2432 5.54555 17.4524 5.39086 17.6066C5.23618 17.7609 5.02638 17.8475 4.80762 17.8475V17.83ZM7.7121 15.7475H7.51028C7.29385 15.7475 7.08628 15.6618 6.93324 15.5092C6.7802 15.3566 6.69422 15.1496 6.69422 14.9338V5.57126C6.69306 5.46366 6.71331 5.3569 6.7538 5.25716C6.79429 5.15742 6.85422 5.06668 6.93011 4.99019C7.00601 4.91369 7.09636 4.85297 7.19595 4.81153C7.29553 4.77009 7.40237 4.74875 7.51028 4.74876H7.7121C7.92934 4.75106 8.1369 4.83874 8.28969 4.99274C8.44248 5.14674 8.52818 5.35463 8.52817 5.57126V14.9338C8.52817 15.1496 8.44219 15.3566 8.28915 15.5092C8.13611 15.6618 7.92854 15.7475 7.7121 15.7475V15.7475ZM10.6166 13.6038H10.4323C10.2151 13.6038 10.0066 13.5183 9.85215 13.366C9.69771 13.2136 9.60979 13.0066 9.60748 12.79V7.75001C9.60027 7.63766 9.61627 7.52504 9.65449 7.41911C9.6927 7.31318 9.75231 7.2162 9.82964 7.13417C9.90696 7.05215 10.0003 6.98682 10.104 6.94224C10.2077 6.89766 10.3194 6.87478 10.4323 6.87501H10.6254C10.8441 6.87501 11.0539 6.96167 11.2086 7.11591C11.3633 7.27016 11.4502 7.47937 11.4502 7.69751V12.7725C11.4514 12.8813 11.4309 12.9892 11.39 13.09C11.349 13.1908 11.2884 13.2825 11.2117 13.3598C11.135 13.4371 11.0437 13.4984 10.9431 13.5403C10.8424 13.5822 10.7344 13.6038 10.6254 13.6038H10.6166ZM13.5299 11.7225H13.3368C13.118 11.7225 12.9082 11.6359 12.7536 11.4816C12.5989 11.3274 12.512 11.1181 12.512 10.9V9.59626C12.5143 9.37964 12.6022 9.17267 12.7566 9.02031C12.9111 8.86795 13.1196 8.7825 13.3368 8.78251H13.5299C13.7471 8.7825 13.9556 8.86795 14.11 9.02031C14.2645 9.17267 14.3524 9.37964 14.3547 9.59626V10.9C14.3547 11.1166 14.269 11.3245 14.1162 11.4785C13.9634 11.6325 13.7559 11.7202 13.5386 11.7225H13.5299Z" fill="#262B2C"></path></svg>