<svg xmlns="http://www.w3.org/2000/svg" width="132" height="14" viewBox="0 0 132 14" fill="none"><g clip-path="url(#clip0_3289_307)"><path d="M65.8279 13.2023H61.3351V1.22525H65.8279V13.2023ZM61.7739 12.7648H65.3892V1.66275H61.7739V12.7648ZM72.0792 13.2023H67.6768V1.22525H76.8748C78.1925 1.11885 79.5046 1.48773 80.5726 2.26475C81.0323 2.68415 81.3886 3.20379 81.6137 3.78313C81.8388 4.36248 81.9267 4.98586 81.8704 5.60463C81.936 6.67385 81.5947 7.72841 80.9148 8.55775C80.1101 9.47825 78.771 9.9525 76.9353 9.96913C76.4729 9.98138 73.0076 9.96913 72.0819 9.96913L72.0792 13.2023ZM68.1129 12.7648H71.6405V9.52725H71.8607C71.9055 9.52725 76.4044 9.54125 76.9248 9.52725C78.635 9.51238 79.8644 9.08975 80.5831 8.26463C81.1884 7.51427 81.489 6.56463 81.4255 5.60375C81.4794 5.04932 81.4046 4.48996 81.2068 3.96903C81.0089 3.4481 80.6934 2.9796 80.2847 2.59988C79.2945 1.89121 78.0831 1.55856 76.8686 1.66188H68.1156L68.1129 12.7648ZM75.9429 7.2785H71.6107V4.01825H75.9718C76.281 3.97565 76.5959 4.01163 76.8874 4.12284C77.1788 4.23405 77.4374 4.41689 77.6391 4.65438C77.822 4.95795 77.9083 5.30974 77.8865 5.66325C77.903 5.99147 77.8318 6.31816 77.6803 6.61C77.4722 6.86015 77.2031 7.05271 76.8988 7.16917C76.5946 7.28563 76.2654 7.32208 75.9429 7.275V7.2785ZM72.0494 6.841H75.9429C76.6624 6.841 77.1082 6.69138 77.3056 6.38338C77.4144 6.15951 77.4636 5.91155 77.4487 5.66325C77.4678 5.40255 77.4112 5.14187 77.2854 4.9125L77.2802 4.90463C77.0713 4.59838 76.6563 4.45575 75.9718 4.45575H72.0494V6.841ZM89.8776 13.379C85.9376 13.379 83.5859 12.4034 82.69 10.397C82.5434 10.0095 82.4438 9.60586 82.3934 9.19475L82.3548 8.94275H87.0424L87.0731 9.1265C87.1092 9.31309 87.1885 9.48868 87.3047 9.63925C87.4899 9.86237 88.1076 10.2369 90.1575 10.2369C92.6215 10.2369 92.6215 9.8055 92.6215 9.57363C92.6215 9.1825 92.3363 9.04863 90.3268 8.83513L89.9451 8.79925C89.1887 8.72838 88.2322 8.63825 87.7953 8.60063C84.1098 8.26813 82.4644 7.12625 82.4644 4.89938C82.4644 2.5605 85.2645 1.04938 89.5985 1.04938C93.134 1.04938 95.4119 1.97863 96.3675 3.8135C96.5943 4.24031 96.7465 4.7025 96.8177 5.18025L96.8484 5.42613H92.1555L92.1362 5.22838C92.1179 5.07384 92.0516 4.92885 91.9467 4.81363C91.7712 4.57913 91.2166 4.1915 89.495 4.1915C87.3811 4.1915 87.0897 4.461 87.0897 4.7515C87.0897 5.13913 87.7575 5.2765 89.8977 5.50488C90.7902 5.5775 92.2249 5.7245 92.7163 5.784C95.8059 6.11825 97.1845 7.23213 97.1845 9.39688C97.1854 11.2125 95.9174 13.379 89.8776 13.379ZM82.8672 9.38025C82.9112 9.6688 82.9868 9.95166 83.0927 10.2238C83.9088 12.0516 86.1289 12.9415 89.8776 12.9415C93.012 12.9415 96.7493 12.329 96.7493 9.39688C96.7493 7.478 95.5295 6.52775 92.6698 6.21888C92.1784 6.15938 90.7524 6.01325 89.8618 5.93975C87.5803 5.693 86.6528 5.56175 86.6528 4.7515C86.6528 3.91325 87.6522 3.754 89.4967 3.754C90.9543 3.754 91.8958 4.0165 92.2951 4.54588C92.404 4.6763 92.4863 4.8267 92.5373 4.98863H96.3403C96.2638 4.65022 96.1428 4.32336 95.9806 4.0165C95.1031 2.33738 92.9593 1.48688 89.6003 1.48688C85.5331 1.48688 82.905 2.8265 82.905 4.89938C82.905 6.87688 84.38 7.85338 87.8356 8.16488C88.2744 8.2025 89.23 8.29263 89.9881 8.36438L90.3725 8.40025C92.2389 8.59625 93.062 8.71875 93.062 9.57363C93.062 10.4941 91.9976 10.6744 90.1592 10.6744C88.4586 10.6744 87.3846 10.4197 86.9695 9.91837C86.8415 9.7585 86.7451 9.57591 86.6852 9.38025H82.8672ZM105.521 13.3641C100.94 13.3641 98.413 11.517 98.413 8.16225V1.22525H102.846V8.16225C102.846 9.31288 103.879 9.97263 105.679 9.97263C107.399 9.97263 108.467 9.284 108.467 8.17713V1.22525H112.854V8.52975C112.858 11.6019 110.183 13.3641 105.518 13.3641H105.521ZM98.8517 1.66275V8.16225C98.8517 12.308 103.027 12.9266 105.521 12.9266C108.099 12.9266 112.422 12.3553 112.422 8.52975V1.66275H108.912V8.17713C108.912 9.53338 107.645 10.4101 105.686 10.4101C103.638 10.4101 102.414 9.57012 102.414 8.16225V1.66275H98.8517ZM131.446 13.2023H127.263V7.79475L124.89 13.2023H121.24L118.892 7.80525V13.2023H114.693V1.22525H120.216L123.086 7.82888L126.094 1.22525H131.452L131.446 13.2023ZM127.701 12.7648H131.008V1.66275H126.373L123.072 8.90688L119.925 1.66275H115.128V12.7648H118.45V5.7L121.521 12.7674H124.592L127.696 5.7105L127.701 12.7648ZM4.71977 1.444H0.723633V12.9835H11.7661V9.91138H4.71977V1.444ZM19.8321 1.1815C14.7312 1.1815 12.0486 3.59213 12.0486 7.1315C12.0486 11.1303 14.8645 13.1585 19.8321 13.1585C25.3006 13.1585 27.6006 10.8065 27.6006 7.1315C27.6006 3.39963 25.0058 1.17975 19.8321 1.17975V1.1815ZM19.8171 4.18013C20.1644 4.1785 20.5114 4.19866 20.8561 4.2405L16.3888 8.69513C16.1773 8.21833 16.0742 7.70081 16.0869 7.17963C16.0869 5.36925 17.0012 4.17838 19.8171 4.17838V4.18013ZM19.8321 10.2071C19.4975 10.2086 19.1631 10.1899 18.8308 10.1511L23.3061 5.68863C23.5096 6.15754 23.607 6.66542 23.5913 7.17613C23.5913 8.9375 22.7489 10.2054 19.8321 10.2054V10.2071ZM35.5182 8.63213H39.6311C39.5706 8.91674 39.4444 9.18337 39.2625 9.41088C38.4099 10.1036 37.3217 10.4406 36.2255 10.3515C35.6738 10.4104 35.1158 10.3503 34.5894 10.1753C34.0629 10.0003 33.5804 9.71457 33.1744 9.33738C32.7586 8.72916 32.561 7.99872 32.6137 7.2645C32.5464 6.49515 32.7613 5.72758 33.2183 5.10413C33.7931 4.45663 34.7662 4.1775 36.1965 4.1775C37.1066 4.10236 38.0155 4.33542 38.7764 4.839C39.0162 5.02894 39.1955 5.2843 39.2924 5.574H43.1068C43.0791 5.09666 42.964 4.62841 42.7673 4.19238C41.8538 2.34 39.7302 1.2375 36.1193 1.2375C32.9788 1.2375 30.871 2.193 29.7066 3.63413C28.9375 4.67482 28.5427 5.94363 28.586 7.23563C28.5362 8.55684 28.9208 9.85807 29.6811 10.9413C30.8315 12.4288 32.8805 13.1603 35.3427 13.1603C36.9797 13.2741 38.6055 12.8169 39.9417 11.867L40.0453 12.9835H43.2139V6.148H35.5182V8.63213ZM52.2074 1.17888C47.1074 1.17888 44.424 3.5895 44.424 7.12888C44.424 11.1276 47.239 13.1559 52.2074 13.1559C57.6768 13.1559 59.9768 10.8039 59.9768 7.12888C59.9768 3.39963 57.382 1.17975 52.2074 1.17975V1.17888ZM52.1934 4.1775C52.5315 4.1765 52.8693 4.19579 53.2051 4.23525L48.7553 8.675C48.5505 8.20351 48.4508 7.6933 48.4631 7.17963C48.4596 5.36925 49.3775 4.17838 52.1934 4.17838V4.1775ZM52.2074 10.2045C51.864 10.2059 51.5208 10.1861 51.1798 10.145L55.67 5.66675C55.8812 6.1419 55.9823 6.65841 55.9657 7.17788C55.9675 8.9375 55.1286 10.2054 52.2074 10.2054V10.2045Z" fill="#262B2C"></path></g><defs><clipPath id="clip0_3289_307"><rect width="132" height="13" fill="white" transform="translate(0 0.5)"></rect></clipPath></defs></svg>